<svg width="446" height="316" viewBox="0 0 446 316" fill="none" xmlns="http://www.w3.org/2000/svg">
<path d="M320.656 12.332C322.554 7.86699 324.677 4.414 329.422 2.514C333.702 0.799996 339.012 0.766993 343.202 2.75499C346.803 4.46399 349.386 7.72298 350.671 11.452C352.199 15.904 351.814 20.79 349.608 24.948C347.639 28.691 344.271 31.687 340.153 32.81C335.744 34.012 330.848 32.949 327.019 30.56C323.985 28.667 322.128 25.84 320.571 22.686C312.999 23.811 304.534 25.003 299.519 31.497C293.271 39.588 294.499 50.716 295.933 60.126C300.451 89.76 310.175 124.006 321.154 151.881C322.565 150.8 323.785 149.737 325.516 149.241C326.853 150.133 327.544 152.715 328.122 154.201C331.143 161.972 339.286 168.293 346.753 171.48C357.188 175.935 368.964 176.363 379.513 172.043C389.119 168.109 397.156 160.992 401.093 151.276C401.472 150.34 401.786 149.404 402.075 148.438L407.929 152.206C418.172 130.638 434.147 75.211 435.374 52.521C435.659 47.247 435.268 41.769 433.443 36.771C431.452 31.316 427.979 27.908 422.705 25.541C418.747 23.763 414.363 23.025 410.058 22.778C408.31 26.597 405.391 30.603 401.292 32.125C396.912 33.751 391.755 33.71 387.57 31.549C383.699 29.501 380.853 25.937 379.712 21.708C378.552 17.519 379.169 13.037 381.418 9.316C383.822 5.367 387.695 2.97798 392.143 1.94298C396.021 1.04198 399.866 1.29598 403.257 3.52498C406.465 5.63398 408.476 8.68999 410.37 11.932C420.732 12.87 431.638 15.88 438.433 24.304C446.354 34.124 446.751 47.192 445.295 59.163C442.839 79.366 435.182 107.796 428.735 127.446C425.814 136.348 420.936 147.216 418.947 155.963C420.7 156.703 422.462 157.425 424.186 158.229C413.747 178.329 406.093 193.463 382.721 200.853C377.397 202.519 371.872 203.455 366.297 203.637L365.989 247.31C365.966 259.151 367.349 275.544 364.396 286.603C362.616 293.266 358.606 299.543 353.684 304.327C345.931 311.863 335.955 315.959 325.132 315.794C314.339 315.63 303.966 311.424 296.474 303.574C281.793 288.193 284.977 269.04 284.609 249.617C278.572 257.125 270.107 261.31 260.555 262.277C255.28 262.81 249.163 262.277 244.412 259.802C240.812 257.602 237.12 255.878 233.577 253.465C225.819 246.631 220.911 238.821 220.274 228.269C219.722 218.432 223.082 208.776 229.623 201.407C236.507 193.661 246.605 189.531 256.861 189.041C266.495 188.581 276.35 192.565 283.368 199.128C291.873 207.082 295.191 218.229 295.542 229.594C295.839 239.213 295.681 248.904 295.703 258.531C295.737 272.746 294.043 286.59 305.311 297.363C310.944 302.748 319.225 305.819 327.014 305.411C335.107 304.987 343.073 300.827 348.322 294.692C351.634 290.822 353.907 286.174 354.927 281.183C356.806 272.052 355.49 256.983 355.494 247.213C355.5 232.96 356.422 218.063 355.24 203.883C355.225 203.707 355.204 203.531 355.187 203.355C338.804 200.701 325.081 193.702 315.257 179.988C310.202 172.931 306.892 164.984 304.563 156.66L311.007 155.861C307.951 145.165 303.945 134.662 300.589 124.046C295.813 108.96 291.75 93.657 288.413 78.189C286.1 67.622 283.739 56.377 284.309 45.528C284.633 39.371 286.105 33.439 289.092 28.021C293.164 20.634 300.203 16.467 308.127 14.266C312.216 13.146 316.419 12.497 320.656 12.332Z" fill="#224135"/>
<path d="M251.461 200.225C260.579 198.066 270.154 200.979 276.525 207.851C282.896 214.722 285.078 224.49 282.237 233.419C279.396 242.349 271.972 249.06 262.802 250.987C248.87 253.915 235.173 245.099 232.069 231.205C228.965 217.312 237.607 203.504 251.461 200.225Z" fill="#FEFEFE"/>
<path d="M254.984 207.759C264.82 206.349 273.946 213.157 275.397 222.988C276.848 232.818 270.079 241.973 260.254 243.465C250.371 244.966 241.15 238.148 239.69 228.258C238.231 218.369 245.088 209.177 254.984 207.759Z" fill="#224135"/>
<path d="M255.735 219.24C259.153 218.28 262.718 220.196 263.805 223.576C264.892 226.956 263.111 230.59 259.774 231.802C257.502 232.628 254.96 232.146 253.148 230.545C251.336 228.944 250.544 226.48 251.083 224.124C251.623 221.767 253.407 219.893 255.735 219.24Z" fill="#FEFEFE"/>
<path d="M407.447 162.785C408.457 163.542 408.42 163.549 408.709 164.786C406.549 172.151 397.867 180.433 391.718 184.776C381.159 192.234 366.534 194.695 353.94 192.476C340.03 190.025 330.09 182.07 322.176 170.69C320.654 168.308 319.266 166.366 319.175 163.48L319.763 163.239C323.579 165.883 326.386 170.36 329.995 173.455C340.678 182.618 354.04 186.705 368.058 185.578C384.888 184.226 396.855 175.107 407.447 162.785Z" fill="#FEFEFE"/>
<path d="M333.97 10.905C337.199 9.89299 340.652 11.607 341.798 14.791C342.943 17.975 341.375 21.496 338.241 22.773C336.095 23.648 333.641 23.277 331.851 21.805C330.06 20.333 329.22 17.999 329.662 15.723C330.105 13.448 331.758 11.598 333.97 10.905Z" fill="#FEFEFE"/>
<path d="M393.183 11.18C395.344 10.503 397.702 11.04 399.356 12.587C401.01 14.133 401.705 16.449 401.175 18.65C400.645 20.852 398.972 22.598 396.796 23.222C393.487 24.171 390.03 22.282 389.041 18.985C388.052 15.688 389.899 12.209 393.183 11.18Z" fill="#FEFEFE"/>
<path d="M206.975 0.618011C213.304 6.64201 224.224 33.02 227.384 42.062C229.442 48.117 231.157 54.284 232.522 60.532C239.101 90.059 236.533 119.066 219.955 144.828C205.762 166.884 182.436 183.496 156.748 189.008C159.545 186.844 162.021 184.233 164.379 181.609C191.592 151.333 205.239 104.599 203.191 64.25C203.107 61.311 202.976 58.651 202.262 55.781C200.829 68.568 199.573 81.177 196.903 93.793C189.02 131.051 170.11 162.879 142.993 189.267C147.268 157.458 131.483 126.208 137.19 94.653C144.191 55.944 175.613 22.444 206.975 0.618011Z" fill="#52A14C"/>
<path d="M36.848 132.704C36.991 132.68 37.134 132.651 37.279 132.632C56.824 130.026 81.013 135.659 96.627 147.824C110.446 158.589 116.047 172.459 118.224 189.391C97.018 168.355 63.79 157.062 34.369 156.442C48.562 160.027 60.954 162.487 74.369 169.018C89.968 177.022 101.943 186.348 113.804 199.115C113.118 199.483 112.426 199.824 111.723 200.157C94.779 208.163 74.803 210.539 56.954 203.988C29.608 193.952 12.649 167.194 0.915009 141.928C12.016 136.725 24.67 133.743 36.848 132.704Z" fill="#52A14C"/>
<path d="M60.998 42.528C70.624 43.908 80.052 46.13 89.133 49.655C103.928 55.397 117.761 65.617 124.26 80.519C129.203 91.854 127.301 102.227 122.903 113.376C114.123 102.868 106.392 92.525 95.925 83.518L94.176 82.363C95.204 85.568 101.21 91.58 103.331 94.875C108.499 102.901 112.486 111.224 115.629 120.236C111.784 120.824 108.019 121.218 104.124 121.081C93.452 120.709 84.126 115.366 77.008 107.593C60.926 90.029 59.921 65.026 60.998 42.528Z" fill="#30713E"/>
<path d="M121.362 119.484C128.338 129.993 132.95 141.445 135.686 153.747C138.914 168.261 139.113 182.432 135.988 196.985C131.046 220.003 120.029 235.889 129.043 260.185C133.883 273.234 143.899 284.534 156.652 290.253C170.104 296.428 185.479 296.909 199.291 291.587C217.504 284.638 226.049 270.332 233.577 253.465C237.12 255.878 240.812 257.602 244.412 259.802C244.04 263.055 242.76 266.179 241.324 269.098C233.22 285.563 217.57 299.862 200.08 305.677C183.878 311.064 165.009 309.529 149.749 301.879C137.123 295.54 126.773 285.441 120.127 272.974C98.746 231.998 126.028 207.546 129.497 168.61C131.042 151.274 126.672 135.735 121.362 119.484Z" fill="#52A14C"/>
</svg>
