<?xml version="1.0" encoding="utf-8" ?>
<svg xmlns="http://www.w3.org/2000/svg" xmlns:xlink="http://www.w3.org/1999/xlink" width="362" height="282" viewBox="0 0 362 282">
	<defs>
		<filter id="filter6637458000" filterUnits="userSpaceOnUse" color-interpolation-filters="sRGB">
			<feComponentTransfer in="SourceAlpha" result="componentTransfer7806561734">
				<feFuncR type="linear" slope="0" intercept="0"/>
				<feFuncG type="linear" slope="0" intercept="0"/>
				<feFuncB type="linear" slope="0" intercept="0"/>
				<feFuncA type="linear" slope="10000" intercept="0"/>
			</feComponentTransfer>
			<feComponentTransfer in="componentTransfer7806561734" result="componentTransfer6216975376">
				<feFuncA type="linear" slope="0.050000001" intercept="0"/>
			</feComponentTransfer>
			<feOffset dx="0" dy="1" in="componentTransfer6216975376" result="offset1733438222"/>
			<feGaussianBlur stdDeviation="1" in="offset1733438222" result="gaussianBlur8180659374"/>
			<feMerge>
				<feMergeNode in="gaussianBlur8180659374"/>
				<feMergeNode in="SourceGraphic"/>
			</feMerge>
		</filter>
	</defs>
	<g filter="url(#filter6637458000)">
		<path d="M12 0C5.37258 0 0 5.37258 0 12L0 266C0 272.627 5.37258 278 12 278L346 278C352.627 278 358 272.627 358 266L358 12C358 5.37258 352.627 0 346 0L12 0Z" fill-rule="nonzero" transform="matrix(1 0 0 1 2 1)" fill="rgb(255, 255, 255)"/>
		<path d="M-0 12C0 5.37258 5.37258 -0 12 -0L346 0C352.627 0 358 5.37258 358 12L358 266C358 272.627 352.627 278 346 278L12 278C5.37258 278 -0 272.627 -0 266L0 12ZM12 1C5.92487 1 1 5.92487 1 12L1 266C1 272.075 5.92487 277 12 277L346 277C352.075 277 357 272.075 357 266L357 12C357 5.92487 352.075 1 346 1L12 1Z" fill-rule="nonzero" transform="matrix(1 0 0 1 2 1)" fill="rgb(243, 244, 246)"/>
		<path d="M8.40674 8.50781Q8.31885 7.66846 7.65527 7.20703Q6.99609 6.74121 5.93701 6.74121Q5.19434 6.74121 4.66699 6.96094Q4.13965 7.18066 3.854 7.56738Q3.57275 7.94971 3.56836 8.44189Q3.56396 8.85059 3.75293 9.15381Q3.94629 9.45264 4.27148 9.65918Q4.59668 9.86572 4.99219 10.0107Q5.3877 10.1514 5.79199 10.248L7.02246 10.5557Q7.76074 10.7271 8.44629 11.0215Q9.13623 11.3115 9.68115 11.7598Q10.2261 12.208 10.5425 12.8408Q10.8633 13.4736 10.8677 14.3218Q10.8633 15.4775 10.2744 16.3521Q9.68994 17.2222 8.57812 17.71Q7.4707 18.1978 5.90186 18.1978Q4.37695 18.1978 3.25195 17.7275Q2.12695 17.2529 1.49414 16.3433Q0.865723 15.4336 0.817383 14.1328L3.15088 14.1328Q3.19922 14.8184 3.56836 15.271Q3.94189 15.7236 4.53955 15.9521Q5.1416 16.1763 5.87988 16.1763Q6.65332 16.1763 7.23779 15.9434Q7.82666 15.7061 8.15625 15.2886Q8.49023 14.8667 8.49463 14.3086Q8.49023 13.7944 8.1958 13.4604Q7.90137 13.1221 7.37402 12.8979Q6.84668 12.6694 6.14355 12.4937L4.65381 12.1025Q3.03662 11.6895 2.10059 10.8457Q1.16455 9.99756 1.16455 8.59131Q1.16455 7.43115 1.79297 6.56543Q2.42139 5.69971 3.50684 5.21631Q4.59668 4.72852 5.96777 4.72852Q7.36084 4.72852 8.41113 5.21191Q9.46582 5.69531 10.0635 6.54785Q10.6655 7.40039 10.6875 8.50781L8.40674 8.50781Z" fill-rule="nonzero" transform="matrix(1 0 0 1 19 21)" fill="rgb(0, 0, 0)"/>
		<path d="M17.1558 18.1934Q15.7188 18.1934 14.6641 17.5605Q13.6094 16.9277 13.0293 15.7896Q12.4536 14.647 12.4536 13.1309Q12.4536 11.606 13.0293 10.4634Q13.6094 9.3208 14.6641 8.68799Q15.7188 8.05518 17.1558 8.05518Q18.5928 8.05518 19.6475 8.68799Q20.7022 9.3208 21.2822 10.4634Q21.8623 11.606 21.8623 13.1309Q21.8623 14.647 21.2822 15.7896Q20.7022 16.9277 19.6475 17.5605Q18.5928 18.1934 17.1558 18.1934ZM17.1646 16.3389Q17.9512 16.3389 18.4697 15.9082Q18.9927 15.4775 19.252 14.748Q19.5156 14.0186 19.5156 13.1221Q19.5156 12.2212 19.252 11.4917Q18.9927 10.7578 18.4697 10.3228Q17.9512 9.8877 17.1646 9.8877Q16.3692 9.8877 15.8418 10.3228Q15.3189 10.7578 15.0596 11.4917Q14.8003 12.2212 14.8003 13.1221Q14.8003 14.0186 15.0596 14.748Q15.3189 15.4775 15.8418 15.9082Q16.3692 16.3389 17.1646 16.3389Z" fill-rule="nonzero" transform="matrix(1 0 0 1 19 21)" fill="rgb(0, 0, 0)"/>
		<path d="M23.8142 18L23.8142 8.18262L26.1301 8.18262L26.1301 18L23.8142 18ZM24.9832 6.78955Q24.4295 6.78955 24.034 6.42041Q23.6384 6.05127 23.6384 5.53271Q23.6384 5.01416 24.034 4.64502Q24.4295 4.27588 24.9788 4.27588Q25.5325 4.27588 25.9236 4.64502Q26.3191 5.01416 26.3191 5.53271Q26.3191 6.05127 25.9236 6.42041Q25.5325 6.78955 24.9832 6.78955Z" fill-rule="nonzero" transform="matrix(1 0 0 1 19 21)" fill="rgb(0, 0, 0)"/>
		<path d="M30.8219 4.90869L30.8219 18L28.506 18L28.506 4.90869L30.8219 4.90869Z" fill-rule="nonzero" transform="matrix(1 0 0 1 19 21)" fill="rgb(0, 0, 0)"/>
		<path d="M39.4499 18L36.9186 18L41.5329 4.90869L44.4552 4.90869L49.0695 18L46.5382 18L43.0446 7.59375L42.9435 7.59375L39.4499 18ZM39.5334 12.8672L46.4372 12.8672L46.4372 14.7744L39.5334 14.7744L39.5334 12.8672Z" fill-rule="nonzero" transform="matrix(1 0 0 1 19 21)" fill="rgb(0, 0, 0)"/>
		<path d="M53.0085 12.2476L53.0085 18L50.6926 18L50.6926 8.18262L52.9074 8.18262L52.9074 9.84814L53.0261 9.84814Q53.3601 9.02637 54.1027 8.54297Q54.8498 8.05518 55.9484 8.05518Q56.9636 8.05518 57.7194 8.49023Q58.4797 8.9209 58.8972 9.74707Q59.3147 10.5732 59.3147 11.751L59.3147 18L56.9987 18L56.9987 12.1069Q56.9987 11.1226 56.489 10.5688Q55.9792 10.0107 55.0871 10.0107Q54.4763 10.0107 54.0061 10.2744Q53.5402 10.5381 53.2766 11.0391Q53.0129 11.54 53.0085 12.2476Z" fill-rule="nonzero" transform="matrix(1 0 0 1 19 21)" fill="rgb(0, 0, 0)"/>
		<path d="M64.4933 18.1978Q63.5617 18.1978 62.8146 17.8638Q62.0719 17.5254 61.6369 16.8706Q61.2062 16.2114 61.2062 15.2446Q61.2062 14.4141 61.5138 13.8691Q61.8259 13.3242 62.3576 12.999Q62.8893 12.6738 63.5529 12.5068Q64.2209 12.3398 64.9372 12.2607Q65.8029 12.1685 66.339 12.0938Q66.8752 12.019 67.1169 11.8652Q67.363 11.707 67.363 11.3774L67.363 11.3379Q67.363 10.6172 66.9367 10.2217Q66.5104 9.82178 65.7018 9.82178Q64.8537 9.82178 64.3571 10.1953Q63.8605 10.5688 63.6891 11.0698L61.5314 10.7622Q61.7863 9.87012 62.3752 9.26807Q62.964 8.66162 63.8122 8.3584Q64.6603 8.05518 65.693 8.05518Q66.3962 8.05518 67.0993 8.22217Q67.8068 8.38477 68.3869 8.76709Q68.9714 9.14941 69.3229 9.8042Q69.6789 10.4546 69.6789 11.4302L69.6789 18L67.4552 18L67.4552 16.6509L67.3805 16.6509Q67.1696 17.0596 66.7873 17.4155Q66.405 17.7715 65.8337 17.9868Q65.2668 18.1978 64.4933 18.1978ZM65.0954 16.4971Q65.7897 16.4971 66.2995 16.2202Q66.8136 15.9434 67.0949 15.4863Q67.3761 15.0249 67.3761 14.4756L67.3761 13.3198Q67.2619 13.4121 67.0026 13.4912Q66.7477 13.5659 66.4269 13.623Q66.1061 13.6802 65.7897 13.7241Q65.4777 13.7681 65.2492 13.8032Q64.7306 13.8735 64.3219 14.0317Q63.9133 14.1899 63.6759 14.4756Q63.443 14.7612 63.443 15.2095Q63.443 15.8423 63.9089 16.1719Q64.3747 16.4971 65.0954 16.4971Z" fill-rule="nonzero" transform="matrix(1 0 0 1 19 21)" fill="rgb(0, 0, 0)"/>
		<path d="M74.3258 4.90869L74.3258 18L72.0099 18L72.0099 4.90869L74.3258 4.90869Z" fill-rule="nonzero" transform="matrix(1 0 0 1 19 21)" fill="rgb(0, 0, 0)"/>
		<path d="M78.143 21.6826Q77.6684 21.6826 77.2685 21.6079Q76.8686 21.5332 76.6357 21.4365L77.1718 19.6348Q77.6772 19.7842 78.0727 19.7754Q78.4726 19.771 78.7715 19.5293Q79.0747 19.292 79.2856 18.7383L79.4834 18.2065L75.9238 8.18262L78.3803 8.18262L80.6391 15.5962L80.7402 15.5962L83.0122 8.18262L85.4775 8.18262L81.5444 19.1865Q81.2675 19.9688 80.8149 20.5269Q80.3623 21.0894 79.7031 21.3838Q79.0483 21.6826 78.143 21.6826Z" fill-rule="nonzero" transform="matrix(1 0 0 1 19 21)" fill="rgb(0, 0, 0)"/>
		<path d="M94.8302 10.7798L92.7208 11.0083Q92.6329 10.6875 92.4088 10.4062Q92.1891 10.125 91.8199 9.95361Q91.4508 9.77783 90.9147 9.77783Q90.194 9.77783 89.7018 10.0942Q89.214 10.4062 89.2184 10.9072Q89.214 11.3335 89.5348 11.6016Q89.86 11.8696 90.6071 12.041L92.2814 12.4014Q93.6744 12.7002 94.3556 13.355Q95.0411 14.0054 95.0411 15.0601Q95.0411 15.9873 94.5006 16.6948Q93.9645 17.3979 93.0197 17.7979Q92.0792 18.1934 90.8488 18.1934Q89.047 18.1934 87.9484 17.4375Q86.8497 16.6772 86.6344 15.3193L88.8932 15.104Q89.047 15.7676 89.548 16.106Q90.049 16.4443 90.8444 16.4443Q91.6705 16.4443 92.1715 16.1104Q92.6725 15.772 92.6725 15.271Q92.6725 14.8491 92.3473 14.5767Q92.0265 14.2998 91.3497 14.1548L89.671 13.8032Q88.2604 13.5044 87.5836 12.8057Q86.9069 12.1069 86.9113 11.0347Q86.9069 10.1294 87.4078 9.46143Q87.9088 8.78906 88.8053 8.42432Q89.7018 8.05518 90.8839 8.05518Q92.611 8.05518 93.6041 8.79346Q94.5973 9.52734 94.8302 10.7798Z" fill-rule="nonzero" transform="matrix(1 0 0 1 19 21)" fill="rgb(0, 0, 0)"/>
		<path d="M96.9515 18L96.9515 8.18262L99.2674 8.18262L99.2674 18L96.9515 18ZM98.1204 6.78955Q97.5667 6.78955 97.1712 6.42041Q96.7757 6.05127 96.7757 5.53271Q96.7757 5.01416 97.1712 4.64502Q97.5667 4.27588 98.116 4.27588Q98.6698 4.27588 99.0609 4.64502Q99.4564 5.01416 99.4564 5.53271Q99.4564 6.05127 99.0609 6.42041Q98.6698 6.78955 98.1204 6.78955Z" fill-rule="nonzero" transform="matrix(1 0 0 1 19 21)" fill="rgb(0, 0, 0)"/>
		<path d="M109.404 10.7798L107.295 11.0083Q107.207 10.6875 106.983 10.4062Q106.763 10.125 106.394 9.95361Q106.025 9.77783 105.488 9.77783Q104.768 9.77783 104.276 10.0942Q103.788 10.4062 103.792 10.9072Q103.788 11.3335 104.109 11.6016Q104.434 11.8696 105.181 12.041L106.855 12.4014Q108.248 12.7002 108.929 13.355Q109.615 14.0054 109.615 15.0601Q109.615 15.9873 109.074 16.6948Q108.538 17.3979 107.593 17.7979Q106.653 18.1934 105.423 18.1934Q103.621 18.1934 102.522 17.4375Q101.423 16.6772 101.208 15.3193L103.467 15.104Q103.621 15.7676 104.122 16.106Q104.623 16.4443 105.418 16.4443Q106.244 16.4443 106.745 16.1104Q107.246 15.772 107.246 15.271Q107.246 14.8491 106.921 14.5767Q106.6 14.2998 105.923 14.1548L104.245 13.8032Q102.834 13.5044 102.157 12.8057Q101.481 12.1069 101.485 11.0347Q101.481 10.1294 101.982 9.46143Q102.483 8.78906 103.379 8.42432Q104.276 8.05518 105.458 8.05518Q107.185 8.05518 108.178 8.79346Q109.171 9.52734 109.404 10.7798Z" fill-rule="nonzero" transform="matrix(1 0 0 1 19 21)" fill="rgb(0, 0, 0)"/>
		<defs>
			<clipPath id="clipPath5774663270">
				<path d="M0 0L330 0L330 120L0 120L0 0Z" fill-rule="nonzero" transform="matrix(1 0 0 1 19 58)"/>
			</clipPath>
		</defs>
		<g clip-path="url(#clipPath5774663270)">
			<defs>
				<clipPath id="clipPath9775042841">
					<path d="M0 0L330 0L330 120L0 120L0 0Z" fill-rule="nonzero" transform="matrix(1 0 0 1 19 58)"/>
				</clipPath>
			</defs>
			<g clip-path="url(#clipPath9775042841)">
				<path d="M0 -0.5L260 -0.5L260 0.5L0 0.5L0 -0.5Z" fill-rule="nonzero" transform="matrix(1 0 0 1 84 143)" fill="rgb(204, 204, 204)"/>
				<path d="M0 -0.5L260 -0.5L260 0.5L0 0.5L0 -0.5Z" fill-rule="nonzero" transform="matrix(1 0 0 1 84 103)" fill="rgb(204, 204, 204)"/>
				<path d="M0 -0.5L260 -0.5L260 0.5L0 0.5L0 -0.5Z" fill-rule="nonzero" transform="matrix(1 0 0 1 84 63)" fill="rgb(204, 204, 204)"/>
				<path d="M0 -0.5L260 -0.5L260 0.5L0 0.5L0 -0.5Z" fill-rule="nonzero" transform="matrix(1 0 0 1 84 143)" fill="rgb(102, 102, 102)"/>
				<path d="M-0.5 6L-0.5 0L0.5 0L0.5 6L-0.5 6Z" fill-rule="nonzero" transform="matrix(1 0 0 1 127.333 143)" fill="rgb(102, 102, 102)"/>
				<path d="M10.6367 3.36328L10.6367 15L9.27344 15L2.93359 5.86328L2.81641 5.86328L2.81641 15L1.41016 15L1.41016 3.36328L2.77344 3.36328L9.13672 12.5234L9.25 12.5234L9.25 3.36328L10.6367 3.36328Z" fill-rule="nonzero" transform="matrix(1 0 0 1 120.833 146.36)" fill="rgb(102, 102, 102)"/>
				<path d="M-0.5 6L-0.5 0L0.5 0L0.5 6L-0.5 6Z" fill-rule="nonzero" transform="matrix(1 0 0 1 214 143)" fill="rgb(102, 102, 102)"/>
				<path d="M1.41016 15L1.41016 3.36328L5.33984 3.36328Q6.71094 3.36328 7.58203 3.85547Q8.45312 4.34766 8.875 5.18359Q9.29688 6.01562 9.29688 7.04688Q9.29688 8.07422 8.87891 8.91406Q8.46094 9.75391 7.58984 10.2539Q6.72266 10.75 5.36328 10.75L2.54688 10.75L2.54688 9.5L5.31641 9.5Q6.25391 9.5 6.82031 9.17578Q7.39062 8.85156 7.64844 8.30078Q7.91016 7.74609 7.91016 7.04688Q7.91016 6.34766 7.64844 5.79688Q7.39062 5.24609 6.81641 4.92969Q6.24609 4.61328 5.29688 4.61328L2.81641 4.61328L2.81641 15L1.41016 15Z" fill-rule="nonzero" transform="matrix(1 0 0 1 208.5 146.36)" fill="rgb(102, 102, 102)"/>
				<path d="M-0.5 6L-0.5 0L0.5 0L0.5 6L-0.5 6Z" fill-rule="nonzero" transform="matrix(1 0 0 1 300.667 143)" fill="rgb(102, 102, 102)"/>
				<path d="M1.41016 15L1.41016 3.36328L2.81641 3.36328L2.81641 9.13672L2.95312 9.13672L8.18359 3.36328L10.0234 3.36328L5.13672 8.61328L10.0234 15L8.31641 15L4.27344 9.58984L2.81641 11.2266L2.81641 15L1.41016 15Z" fill-rule="nonzero" transform="matrix(1 0 0 1 295.167 146.36)" fill="rgb(102, 102, 102)"/>
				<path d="M0.5 0L0.5 80L-0.5 80L-0.5 0L0.5 0Z" fill-rule="nonzero" transform="matrix(1 0 0 1 84 63)" fill="rgb(102, 102, 102)"/>
				<path d="M0 -0.5L6 -0.5L6 0.5L0 0.5L0 -0.5Z" fill-rule="nonzero" transform="matrix(1 0 0 1 78 143)" fill="rgb(102, 102, 102)"/>
				<path d="M5 15.1602Q3.71484 15.1602 2.8125 14.457Q1.91016 13.7539 1.42969 12.418Q0.953125 11.0781 0.953125 9.18359Q0.953125 7.29688 1.43359 5.96094Q1.91406 4.62109 2.82031 3.91406Q3.72656 3.20312 5 3.20312Q6.27344 3.20312 7.17969 3.91406Q8.08594 4.62109 8.56641 5.96094Q9.04688 7.29688 9.04688 9.18359Q9.04688 11.0781 8.56641 12.418Q8.08984 13.7539 7.1875 14.457Q6.28516 15.1602 5 15.1602ZM5 13.9102Q6.27344 13.9102 6.97656 12.6836Q7.68359 11.4531 7.68359 9.18359Q7.68359 7.67188 7.35938 6.60938Q7.03906 5.54688 6.4375 4.99219Q5.83984 4.43359 5 4.43359Q3.73828 4.43359 3.02734 5.67578Q2.31641 6.91406 2.31641 9.18359Q2.31641 10.6914 2.63281 11.75Q2.95312 12.8086 3.55078 13.3594Q4.15234 13.9102 5 13.9102Z" fill-rule="nonzero" transform="matrix(1 0 0 1 66 132.68)" fill="rgb(102, 102, 102)"/>
				<path d="M0 -0.5L6 -0.5L6 0.5L0 0.5L0 -0.5Z" fill-rule="nonzero" transform="matrix(1 0 0 1 78 103)" fill="rgb(102, 102, 102)"/>
				<path d="M4.93359 15.1602Q3.76172 15.1602 2.86719 14.7422Q1.97266 14.3242 1.47266 13.5898Q0.972656 12.8516 0.976562 11.9102Q0.972656 11.1719 1.26562 10.543Q1.5625 9.91406 2.07422 9.49219Q2.58984 9.06641 3.22656 8.95312L3.22656 8.88672Q2.39062 8.67188 1.89453 7.94922Q1.40234 7.22266 1.41016 6.29688Q1.40234 5.41016 1.85547 4.71094Q2.3125 4.01172 3.10938 3.60938Q3.91016 3.20312 4.93359 3.20312Q5.94141 3.20312 6.73828 3.60938Q7.53516 4.01172 7.99219 4.71094Q8.44922 5.41016 8.45312 6.29688Q8.44922 7.22266 7.94922 7.94922Q7.45312 8.67188 6.63672 8.88672L6.63672 8.95312Q7.26562 9.06641 7.76953 9.49219Q8.27734 9.91406 8.57812 10.543Q8.87891 11.1719 8.88672 11.9102Q8.87891 12.8516 8.375 13.5898Q7.875 14.3242 6.98438 14.7422Q6.09766 15.1602 4.93359 15.1602ZM4.93359 13.9102Q5.72266 13.9102 6.29688 13.6562Q6.87109 13.3984 7.18359 12.9336Q7.49609 12.4648 7.5 11.8398Q7.49609 11.1836 7.16016 10.6797Q6.82422 10.1719 6.24609 9.88281Q5.67188 9.58984 4.93359 9.58984Q4.1875 9.58984 3.60547 9.88281Q3.02344 10.1719 2.69141 10.6797Q2.35938 11.1836 2.36328 11.8398Q2.35938 12.4648 2.66797 12.9336Q2.97656 13.3984 3.55469 13.6562Q4.13672 13.9102 4.93359 13.9102ZM4.93359 8.38672Q5.55859 8.38672 6.04297 8.13672Q6.52734 7.88672 6.80469 7.4375Q7.08594 6.98828 7.08984 6.38672Q7.08594 5.79688 6.8125 5.35547Q6.53906 4.91406 6.05469 4.67578Q5.57422 4.43359 4.93359 4.43359Q4.27734 4.43359 3.78906 4.67578Q3.30078 4.91406 3.03125 5.35547Q2.76562 5.79688 2.77344 6.38672Q2.76562 6.98828 3.03906 7.4375Q3.31641 7.88672 3.80469 8.13672Q4.29688 8.38672 4.93359 8.38672Z" fill-rule="nonzero" transform="matrix(1 0 0 1 66 92.68)" fill="rgb(102, 102, 102)"/>
				<path d="M0 -0.5L6 -0.5L6 0.5L0 0.5L0 -0.5Z" fill-rule="nonzero" transform="matrix(1 0 0 1 78 63)" fill="rgb(102, 102, 102)"/>
				<path d="M5.29688 3.36328L5.29688 15L3.88672 15L3.88672 4.83984L3.81641 4.83984L0.976562 6.72656L0.976562 5.29688L3.88672 3.36328L5.29688 3.36328Z" fill-rule="nonzero" transform="matrix(1 0 0 1 58 59.68)" fill="rgb(102, 102, 102)"/>
				<path d="M12.4981 15.1602Q11.7833 15.1484 11.0685 14.8867Q10.3536 14.625 9.75986 14.0039Q9.17001 13.3789 8.81064 12.3164Q8.45517 11.25 8.45517 9.63672Q8.45517 8.08984 8.74423 6.89453Q9.03329 5.69922 9.58408 4.87891Q10.1349 4.05859 10.9161 3.63281Q11.6974 3.20312 12.6817 3.20312Q13.6583 3.20312 14.42 3.59375Q15.1856 3.98438 15.67 4.67969Q16.1544 5.37109 16.295 6.27344L14.9083 6.27344Q14.7169 5.48828 14.1583 4.97266Q13.6036 4.45312 12.6817 4.45312Q11.3302 4.45312 10.5528 5.63281Q9.77939 6.80859 9.77158 8.93359L9.86533 8.93359Q10.1817 8.44922 10.6192 8.10547Q11.0606 7.76172 11.5958 7.57422Q12.131 7.38672 12.7286 7.38672Q13.7286 7.38672 14.5567 7.88281Q15.3849 8.37891 15.8849 9.25391Q16.3849 10.125 16.3849 11.25Q16.3849 12.3281 15.9005 13.2266Q15.42 14.1211 14.5489 14.6484Q13.6778 15.1719 12.4981 15.1602ZM12.4981 13.9102Q13.2169 13.9102 13.7872 13.5508Q14.3575 13.1914 14.6895 12.5898Q15.0216 11.9883 15.0216 11.25Q15.0216 10.5273 14.7013 9.93359Q14.381 9.33984 13.8185 8.98828Q13.2599 8.63672 12.545 8.63672Q12.006 8.63672 11.5372 8.85156Q11.0724 9.0625 10.7208 9.43359Q10.3731 9.80078 10.1739 10.2773Q9.97861 10.75 9.97861 11.2734Q9.97861 11.9648 10.3028 12.5703Q10.631 13.1719 11.2013 13.543Q11.7716 13.9102 12.4981 13.9102Z" fill-rule="nonzero" transform="matrix(1 0 0 1 58 59.68)" fill="rgb(102, 102, 102)"/>
				<path d="M0 0L40 0L40 70L0 70L0 0Z" fill-rule="nonzero" transform="matrix(1 0 0 1 107 73)" fill="rgb(76, 175, 80)"/>
				<path d="M0 0L40 0L40 40L0 40L0 0Z" fill-rule="nonzero" transform="matrix(1 0 0 1 193.667 103)" fill="rgb(33, 150, 243)"/>
				<path d="M0 0L40 0L40 60L0 60L0 0Z" fill-rule="nonzero" transform="matrix(1 0 0 1 280.333 83)" fill="rgb(255, 152, 0)"/>
			</g>
		</g>
		<path d="M1.07324 16.8643L1.07324 6.36426L2.20801 6.36426L2.20801 7.57764L2.34814 7.57764Q2.47461 7.37939 2.70703 7.06836Q2.93945 6.75732 3.37354 6.51123Q3.80762 6.26514 4.55273 6.26514Q5.52002 6.26514 6.25488 6.74707Q6.98975 7.229 7.40332 8.11426Q7.81689 8.99951 7.81689 10.2026Q7.81689 11.416 7.40332 12.3047Q6.98975 13.1899 6.2583 13.6753Q5.52686 14.1606 4.57324 14.1606Q3.83838 14.1606 3.39404 13.9146Q2.95312 13.6685 2.71387 13.354Q2.47461 13.0361 2.34814 12.8276L2.24561 12.8276L2.24561 16.8643L1.07324 16.8643ZM2.22852 10.1821Q2.22852 11.0469 2.48145 11.7065Q2.73438 12.3628 3.21973 12.7354Q3.7085 13.1045 4.41602 13.1045Q5.15088 13.1045 5.64307 12.7148Q6.13867 12.3252 6.38818 11.6621Q6.64111 10.9956 6.64111 10.1821Q6.64111 9.37549 6.39502 8.72949Q6.14893 8.08008 5.65332 7.70068Q5.16113 7.31787 4.41602 7.31787Q3.69824 7.31787 3.20947 7.68018Q2.72412 8.03906 2.47461 8.68506Q2.22852 9.32764 2.22852 10.1821Z" fill-rule="nonzero" transform="matrix(1 0 0 1 19 195)" fill="rgb(75, 85, 99)"/>
		<path d="M9.76498 14L9.76498 3.81787L10.9955 3.81787L10.9955 8.35352L16.4266 8.35352L16.4266 3.81787L17.6605 3.81787L17.6605 14L16.4266 14L16.4266 9.44727L10.9955 9.44727L10.9955 14L9.76498 14Z" fill-rule="nonzero" transform="matrix(1 0 0 1 19 195)" fill="rgb(75, 85, 99)"/>
		<path d="M20.8194 12.6978Q20.4537 12.6978 20.1905 12.4346Q19.9274 12.1714 19.9274 11.8022Q19.9274 11.4331 20.1905 11.1699Q20.4537 10.9067 20.8194 10.9067Q21.1886 10.9067 21.4518 11.1699Q21.715 11.4331 21.715 11.8022Q21.715 12.0449 21.5919 12.25Q21.4723 12.4551 21.2706 12.5781Q21.069 12.6978 20.8194 12.6978ZM20.8194 7.54688Q20.4537 7.54688 20.1905 7.28369Q19.9274 7.02051 19.9274 6.65137Q19.9274 6.28564 20.1905 6.02246Q20.4537 5.75586 20.8194 5.75586Q21.1886 5.75586 21.4518 6.02246Q21.715 6.28564 21.715 6.65137Q21.715 6.89404 21.5919 7.09912Q21.4723 7.3042 21.2706 7.42725Q21.069 7.54688 20.8194 7.54688Z" fill-rule="nonzero" transform="matrix(1 0 0 1 19 195)" fill="rgb(75, 85, 99)"/>
		<path d="M31.2227 14.1401Q30.5425 14.1299 29.8794 13.8906Q29.2198 13.6514 28.6831 13.0977Q28.1465 12.5405 27.8252 11.6006Q27.5039 10.6572 27.5074 9.25244Q27.5074 7.92285 27.774 6.88721Q28.0406 5.85156 28.543 5.13721Q29.0454 4.42285 29.753 4.05029Q30.4639 3.67773 31.3526 3.67773Q32.2617 3.67773 32.9659 4.03662Q33.6734 4.39551 34.1109 5.02783Q34.5518 5.65674 34.668 6.46338L33.1538 6.46338Q33 5.82764 32.542 5.42773Q32.084 5.02441 31.3526 5.02441Q30.2315 5.02441 29.606 5.99854Q28.9839 6.97266 28.9771 8.70557L29.0523 8.70557Q29.3155 8.2749 29.7017 7.96729Q30.0879 7.65967 30.5664 7.49219Q31.045 7.32471 31.5782 7.32471Q32.4634 7.32471 33.1812 7.75879Q33.9024 8.18945 34.3296 8.94482Q34.7569 9.7002 34.7569 10.6743Q34.7569 11.6484 34.3159 12.4414Q33.875 13.231 33.0786 13.689Q32.2857 14.147 31.2227 14.1401ZM31.2159 12.8481Q31.8003 12.8481 32.2652 12.561Q32.73 12.2705 32.9966 11.7852Q33.2666 11.2964 33.2666 10.6948Q33.2666 10.1035 33.0034 9.625Q32.7437 9.14307 32.2857 8.85938Q31.8311 8.57568 31.25 8.57568Q30.8091 8.57568 30.4331 8.74658Q30.0572 8.91748 29.7735 9.21484Q29.4898 9.51221 29.3291 9.89844Q29.1685 10.2812 29.1685 10.7119Q29.1685 11.2793 29.4351 11.7681Q29.7017 12.2534 30.1631 12.5508Q30.628 12.8481 31.2159 12.8481Z" fill-rule="nonzero" transform="matrix(1 0 0 1 19 195)" fill="rgb(75, 85, 99)"/>
		<path d="M37.1111 14.0957Q36.7009 14.0957 36.407 13.8052Q36.113 13.5112 36.1164 13.1011Q36.113 12.6943 36.407 12.4038Q36.7009 12.1099 37.1111 12.1099Q37.5144 12.1099 37.8083 12.4038Q38.1023 12.6943 38.1023 13.1011Q38.1023 13.3745 37.9655 13.6001Q37.8288 13.8257 37.6032 13.9624Q37.3811 14.0957 37.1111 14.0957Z" fill-rule="nonzero" transform="matrix(1 0 0 1 19 195)" fill="rgb(75, 85, 99)"/>
		<path d="M43.2727 14.1401Q42.3361 14.1401 41.5944 13.7778Q40.8527 13.4155 40.4084 12.7866Q39.9675 12.1543 39.9333 11.3442L41.427 11.3442Q41.4851 12.0005 42.0114 12.4243Q42.5378 12.8481 43.2727 12.8481Q43.8571 12.8481 44.3117 12.5781Q44.7697 12.3047 45.0295 11.8262Q45.2927 11.3477 45.2927 10.7393Q45.2927 10.1172 45.0227 9.63184Q44.7526 9.14307 44.281 8.86621Q43.8127 8.58594 43.2077 8.58252Q42.7463 8.5791 42.278 8.73975Q41.8098 8.89697 41.5227 9.15674L40.1145 8.94824L40.6853 3.81787L46.2873 3.81787L46.2873 5.13379L41.967 5.13379L41.6389 7.98779L41.7004 7.98779Q41.9978 7.69385 42.4934 7.50244Q42.989 7.31104 43.5529 7.31104Q44.4826 7.31104 45.2106 7.75195Q45.9421 8.18945 46.3591 8.95508Q46.7795 9.7207 46.7795 10.7051Q46.7795 11.6997 46.3283 12.4756Q45.8806 13.248 45.0876 13.6958Q44.2946 14.1401 43.2727 14.1401Z" fill-rule="nonzero" transform="matrix(1 0 0 1 19 195)" fill="rgb(75, 85, 99)"/>
		<path d="M3.96143 5.55762L3.96143 5.36279Q3.96143 4.7749 3.7085 4.49463Q3.45898 4.21436 2.84033 4.21436L2.56348 4.21436Q1.65088 4.21436 1.15527 4.08789Q0.659668 3.96143 0.307617 3.69482Q-0.0683594 3.41455 -0.256348 2.97363Q-0.447754 2.53271 -0.447754 1.97559Q-0.447754 1.79102 -0.427246 1.6167Q-0.406738 1.44238 -0.379395 1.23047L0.659668 1.30225Q0.628906 1.45605 0.615234 1.57568Q0.601562 1.69531 0.601562 1.83545Q0.601562 2.14307 0.663086 2.38232Q0.728027 2.61816 0.868164 2.77197Q1.06299 2.99756 1.42529 3.10352Q1.79102 3.20605 2.4917 3.20605L2.54639 3.20605Q3.2915 3.20605 3.72559 3.31885Q4.15967 3.43164 4.46729 3.72559Q4.70312 3.94775 4.82959 4.33398Q4.95605 4.7168 4.96973 5.29102L3.96143 5.55762ZM4.9834 5.29102L4.9834 6.28564L4.70312 6.28564Q4.26904 6.38477 3.76318 6.71289Q3.26074 7.04102 2.81299 7.56738Q2.36523 8.09033 2.07812 8.79102Q1.79102 9.4917 1.79102 10.3325Q1.79102 11.3408 2.0918 11.9355Q2.39258 12.5303 2.84033 12.7832Q3.2915 13.0327 3.73926 13.0327Q4.08789 13.0327 4.32373 12.9644Q4.56299 12.8926 4.87061 12.7114L5.36279 13.5659Q4.99707 13.8462 4.56299 13.959Q4.12891 14.0684 3.68115 14.0684Q2.79932 14.0684 2.12598 13.6069Q1.45605 13.1455 1.06982 12.3149Q0.687012 11.481 0.687012 10.3599Q0.687012 9.2832 1.02881 8.43555Q1.37061 7.58789 1.92432 6.95898Q2.47803 6.32666 3.12061 5.9165Q3.7666 5.50293 4.36816 5.29102L4.9834 5.29102Z" fill-rule="nonzero" transform="matrix(1 0 0 1 19 223)" fill="rgb(75, 85, 99)"/>
		<path d="M10.4597 13.1182Q9.63255 13.1182 8.87376 12.8242Q8.11839 12.5303 7.45189 11.8809Q6.7888 11.228 6.23509 10.1445Q5.6848 9.05762 5.25072 7.48877L6.31371 7.2085Q6.7888 8.93115 7.37669 10.0044Q7.96458 11.0742 8.73363 11.5664Q9.50609 12.0552 10.5007 12.0552Q11.5364 12.0552 12.0661 11.6074Q12.5993 11.1597 12.5993 10.2471Q12.5993 9.81299 12.4866 9.50537Q12.3772 9.19775 12.2644 8.98926L13.1052 8.98926Q12.7121 9.39258 12.2849 9.71729Q11.8577 10.0386 11.3723 10.2197Q10.8904 10.4009 10.3196 10.4009Q9.77269 10.4009 9.35228 10.1924Q8.93187 9.98047 8.69261 9.58398Q8.45677 9.18408 8.45677 8.62354Q8.45677 8.0083 8.89085 7.37256Q9.32494 6.7334 10.3606 6.2583Q10.0803 6.27197 9.72142 6.27881Q9.36595 6.28564 9.01732 6.28564L4.70384 6.28564L4.70384 5.29102L17.822 5.29102L17.822 6.28564L13.4402 6.28564Q13.1052 6.28564 12.8386 6.27197Q12.572 6.2583 12.3327 6.24463Q11.157 6.77441 10.5554 7.2085Q9.95384 7.64258 9.74193 8.00146Q9.53343 8.35693 9.53343 8.68164Q9.53343 9.07129 9.7556 9.24219Q9.98119 9.40967 10.2615 9.40967Q10.7947 9.40967 11.2151 9.16357Q11.6355 8.91748 12.1653 8.45605L13.3684 8.89014Q13.4949 9.17041 13.5769 9.58398Q13.6623 9.99756 13.6623 10.4453Q13.6623 11.1426 13.3479 11.7544Q13.0334 12.3628 12.3259 12.7422Q11.6184 13.1182 10.4597 13.1182ZM16.0583 11.1289Q16.0583 11.8159 16.1677 12.4482Q16.2805 13.0771 16.5471 13.8599L15.4978 14.0991Q15.2449 13.2856 15.1047 12.5098Q14.9646 11.7305 14.9646 10.8931Q14.9646 10.1514 15.0979 9.56348Q15.2312 8.97559 15.4123 8.56885Q14.3493 8.55518 13.6008 8.29541Q12.8523 8.03564 12.3464 7.55371Q11.844 7.06836 11.4953 6.39844L12.5583 6.17285Q12.7805 6.57959 13.1223 6.89404Q13.4675 7.2085 14.0144 7.39307Q14.5613 7.57422 15.3577 7.57422Q15.5525 7.57422 15.7336 7.56055Q15.9182 7.54688 16.1267 7.5332L16.6736 8.51074Q16.3386 9.14307 16.1985 9.74463Q16.0583 10.3462 16.0583 11.1289Z" fill-rule="nonzero" transform="matrix(1 0 0 1 19 223)" fill="rgb(75, 85, 99)"/>
		<path d="M26.1653 5.29102L26.1653 6.28564L24.6956 6.28564L24.6956 14L23.6189 14Q23.1985 13.1592 22.4637 12.4551Q21.7288 11.7476 20.7752 11.2588Q19.825 10.7666 18.7449 10.5991L18.2015 9.25244Q19.5447 8.44238 20.9769 7.78613Q22.4124 7.12646 23.9402 6.66504L23.6189 7.25293L23.6189 6.28564L17.5418 6.28564L17.5418 5.29102L26.1653 5.29102ZM23.6189 7.3623L23.9129 7.75537Q22.8465 8.10742 21.6707 8.62012Q20.4949 9.12939 19.5003 9.74463Q20.2591 9.91211 21.1102 10.3188Q21.9646 10.7256 22.6927 11.3408Q23.4207 11.9561 23.8138 12.7695L23.6873 12.7695Q23.66 12.4448 23.6395 12.1235Q23.6189 11.8022 23.6189 11.3545L23.6189 7.3623Z" fill-rule="nonzero" transform="matrix(1 0 0 1 19 223)" fill="rgb(75, 85, 99)"/>
		<path d="M40.1284 5.29102L40.1284 6.28564L38.6586 6.28564L38.6586 14L37.5786 14L37.5786 8.45605L37.8862 9.35156Q37.312 8.51074 36.8369 7.91602Q36.3618 7.32129 35.9345 6.94531Q35.5073 6.56592 35.0732 6.3916Q34.6391 6.21729 34.1367 6.21729Q33.5761 6.21729 33.1215 6.42578Q32.6669 6.63428 32.2876 6.98633Q31.9082 7.33496 31.5869 7.7417L31.4741 7.76904Q31.6997 7.62891 31.915 7.56055Q32.1337 7.48877 32.4003 7.48877Q33.2104 7.48877 33.5864 7.92969Q33.9658 8.37061 33.9658 9.0166Q33.9658 9.17041 33.9521 9.31055Q33.9384 9.45068 33.9111 9.51904L33.6718 9.43701Q33.8427 9.25244 33.9965 9.08496Q34.1503 8.91748 34.3247 8.75Q34.499 8.58252 34.6801 8.40137L36.4165 6.77441L37.1035 7.51953L33.1284 11.269L32.3012 10.5L33.4497 9.40967L32.9438 10.0112L32.5268 10.3325Q32.7353 10.0933 32.8823 9.81982Q33.0293 9.54639 33.0293 9.19775Q33.0293 8.84912 32.8173 8.64062Q32.6088 8.42871 32.2021 8.42871Q31.9799 8.42871 31.768 8.48682Q31.5595 8.5415 31.3339 8.68164L30.271 7.67334Q30.8315 6.93164 31.4194 6.37793Q32.0073 5.82422 32.6499 5.50977Q33.2959 5.19531 34.0376 5.19531Q34.8203 5.19531 35.4492 5.48926Q36.0815 5.7832 36.6694 6.36426Q37.2573 6.94531 37.8999 7.82715L37.6503 7.75537Q37.6059 7.42041 37.5922 7.02734Q37.5786 6.63428 37.5786 6.18652L37.5786 4.36816L38.3203 4.36816L38.645 5.29102L40.1284 5.29102Z" fill-rule="nonzero" transform="matrix(1 0 0 1 19 223)" fill="rgb(75, 85, 99)"/>
		<path d="M48.5698 5.29102L48.5698 6.28564L42.2124 6.28564L42.2124 10.459L42.0176 10.1787Q42.5781 9.54639 43.2925 9.00293Q44.0068 8.45605 44.8442 8.00146Q45.685 7.54688 46.6387 7.19482L47.5478 8.09033Q47.2812 8.58252 47.1206 9.04395Q46.9599 9.50537 46.8813 10.0112Q46.8061 10.5137 46.8061 11.1289Q46.8061 11.8159 46.9155 12.4482Q47.0283 13.0771 47.2949 13.8599L46.2456 14.0991Q45.9927 13.2856 45.8525 12.5098Q45.7124 11.7305 45.7124 10.8931Q45.7124 10.3188 45.7944 9.81641Q45.8799 9.31055 46.0268 8.91064Q46.1738 8.51074 46.3276 8.26123L46.4985 8.32959Q45.6987 8.65088 44.9433 9.11572Q44.188 9.57715 43.4599 10.1787Q42.7319 10.7803 41.9629 11.5493L41.1357 10.9888L41.1357 6.28564L39.8472 6.28564L39.8472 5.29102L48.5698 5.29102Z" fill-rule="nonzero" transform="matrix(1 0 0 1 19 223)" fill="rgb(75, 85, 99)"/>
		<path d="M52.295 5.29102L52.295 6.28564L50.8218 6.28564L50.8218 14L49.7452 14L49.7452 7.43408Q49.5777 6.95898 49.2462 6.62402Q48.918 6.28564 48.4019 6.28564L48.2891 6.28564L48.2891 5.29102L48.4976 5.29102Q48.836 5.29102 49.1983 5.50977Q49.564 5.7251 49.7862 6.17285Q49.7725 6.10449 49.7589 5.85156Q49.7452 5.59863 49.7452 5.41748L49.7452 4.36816L50.5005 4.36816L50.8082 5.29102L52.295 5.29102Z" fill-rule="nonzero" transform="matrix(1 0 0 1 19 223)" fill="rgb(75, 85, 99)"/>
		<path d="M61.3237 5.29102L61.3237 6.28564L59.8539 6.28564L59.8539 14L58.7738 14Q58.2441 13.231 57.516 12.5508Q56.788 11.8706 55.8549 11.375Q54.9252 10.8794 53.7631 10.6675L53.4418 9.36523L54.1698 9.85742Q55.3456 10.0796 56.2343 10.5205Q57.123 10.9614 57.7655 11.5151Q58.4115 12.0688 58.8046 12.6431Q58.7909 12.3184 58.7807 11.9971Q58.7738 11.6758 58.7738 11.2964L58.7738 4.36816L59.519 4.36816L59.8403 5.29102L61.3237 5.29102ZM55.1064 5.25Q55.9882 5.25 56.5761 5.55078Q57.164 5.85156 57.4579 6.36426Q57.7519 6.87354 57.7519 7.50244Q57.7519 8.59619 56.8495 9.2832Q55.9472 9.9668 54.3647 10.1514L53.6947 10.0112L53.4418 9.36523Q54.6176 9.2832 55.3183 9.02344Q56.019 8.76367 56.3197 8.36719Q56.6205 7.96729 56.6205 7.4751Q56.6205 6.87354 56.2275 6.55225Q55.8344 6.23096 55.079 6.23096Q54.3783 6.23096 54.0776 6.50439Q53.7768 6.77441 53.7768 7.08545Q53.7768 7.28027 53.8827 7.44775Q53.9887 7.61523 54.2519 7.75537L53.6366 8.62354Q53.37 8.44238 53.1513 8.22705Q52.936 8.0083 52.8095 7.71436Q52.6864 7.42041 52.6864 7.04102Q52.6864 6.55225 52.9633 6.14551Q53.2436 5.73877 53.7905 5.49609Q54.3373 5.25 55.1064 5.25Z" fill-rule="nonzero" transform="matrix(1 0 0 1 19 223)" fill="rgb(75, 85, 99)"/>
		<path d="M56.7746 4.10156L61.3375 1.16211L61.8707 1.9585L57.4035 4.9834L56.7746 4.10156Z" fill-rule="nonzero" transform="matrix(1 0 0 1 19 223)" fill="rgb(75, 85, 99)"/>
		<path d="M63.1109 14.0786Q62.7452 14.0786 62.482 13.8154Q62.2189 13.5522 62.2189 13.1831Q62.2189 12.8174 62.482 12.5542Q62.7452 12.291 63.1109 12.291Q63.4801 12.291 63.7433 12.5542Q64.0065 12.8174 64.0065 13.1831Q64.0065 13.4292 63.8834 13.6343Q63.7638 13.8359 63.5621 13.959Q63.3605 14.0786 63.1109 14.0786ZM63.1109 8.41162Q62.7452 8.41162 62.482 8.14844Q62.2189 7.88525 62.2189 7.51611Q62.2189 7.15039 62.482 6.88721Q62.7452 6.62061 63.1109 6.62061Q63.4801 6.62061 63.7433 6.88721Q64.0065 7.15039 64.0065 7.51611Q64.0065 7.76221 63.8834 7.96729Q63.7638 8.16895 63.5621 8.29199Q63.3605 8.41162 63.1109 8.41162Z" fill-rule="nonzero" transform="matrix(1 0 0 1 19 223)" fill="rgb(75, 85, 99)"/>
		<path d="M69.9561 14L69.9561 12.8857L73.4048 9.31396Q73.9551 8.73633 74.314 8.29883Q74.6763 7.85791 74.854 7.45801Q75.0318 7.05811 75.0318 6.61377Q75.0318 6.10449 74.7925 5.73535Q74.5567 5.36621 74.1431 5.16455Q73.7295 4.96289 73.2134 4.96289Q72.6665 4.96289 72.2598 5.18848Q71.8531 5.41064 71.6309 5.81738Q71.4121 6.2207 71.4121 6.77441L69.9492 6.77441Q69.9492 5.84131 70.3765 5.14746Q70.8037 4.4502 71.5489 4.06396Q72.294 3.67773 73.2442 3.67773Q74.2046 3.67773 74.9361 4.06055Q75.6709 4.43994 76.0811 5.09619Q76.4947 5.74902 76.4947 6.56592Q76.4947 7.1333 76.2827 7.67676Q76.0742 8.22021 75.5513 8.8833Q75.0284 9.54639 74.0987 10.4932L72.0752 12.6089L72.0752 12.6841L76.6587 12.6841L76.6587 14L69.9561 14Z" fill-rule="nonzero" transform="matrix(1 0 0 1 19 223)" fill="rgb(75, 85, 99)"/>
		<path d="M79.5468 14.0957Q79.1366 14.0957 78.8427 13.8052Q78.5487 13.5112 78.5521 13.1011Q78.5487 12.6943 78.8427 12.4038Q79.1366 12.1099 79.5468 12.1099Q79.9501 12.1099 80.244 12.4038Q80.538 12.6943 80.538 13.1011Q80.538 13.3745 80.4012 13.6001Q80.2645 13.8257 80.0389 13.9624Q79.8168 14.0957 79.5468 14.0957Z" fill-rule="nonzero" transform="matrix(1 0 0 1 19 223)" fill="rgb(75, 85, 99)"/>
		<path d="M85.6941 14.1401Q84.6653 14.1401 83.8654 13.7881Q83.0656 13.4326 82.5974 12.8037Q82.1325 12.1748 82.0984 11.3442L83.657 11.3442Q83.6911 11.7954 83.9646 12.127Q84.238 12.4551 84.6858 12.6362Q85.1335 12.8174 85.6838 12.8174Q86.2854 12.8174 86.7468 12.6089Q87.2116 12.397 87.4748 12.0244Q87.7414 11.6484 87.738 11.1562Q87.7414 10.6436 87.4782 10.2539Q87.2185 9.86084 86.7195 9.63867Q86.2204 9.4165 85.5129 9.4165L84.6516 9.4165L84.6516 8.16211L85.5129 8.16211Q86.0803 8.16211 86.511 7.96045Q86.9416 7.75879 87.1843 7.39307Q87.4304 7.02734 87.4304 6.53516Q87.4304 6.06006 87.2151 5.70801Q87.0031 5.35596 86.6169 5.16113Q86.2341 4.96289 85.7146 4.96289Q85.219 4.96289 84.7849 5.14404Q84.3542 5.3252 84.0842 5.66016Q83.8176 5.99512 83.7971 6.46338L82.3137 6.46338Q82.3376 5.63623 82.8025 5.01074Q83.2673 4.38184 84.0295 4.02979Q84.7951 3.67773 85.7317 3.67773Q86.7126 3.67773 87.427 4.06055Q88.1413 4.43994 88.5276 5.07227Q88.9172 5.70117 88.9172 6.44971Q88.9172 7.31104 88.4387 7.90576Q87.9602 8.50049 87.1638 8.70557L87.1638 8.78418Q88.1823 8.94141 88.7395 9.59082Q89.2966 10.2402 89.2932 11.2041Q89.2966 12.0483 88.8283 12.7148Q88.3601 13.3779 87.5466 13.7607Q86.7365 14.1401 85.6941 14.1401Z" fill-rule="nonzero" transform="matrix(1 0 0 1 19 223)" fill="rgb(75, 85, 99)"/>
		<path d="M96.4829 12.0894L96.4829 11.5527Q96.4829 10.9785 96.7221 10.5Q96.9648 10.0181 97.4262 9.72754Q97.8911 9.43359 98.5542 9.43359Q99.2309 9.43359 99.6889 9.72412Q100.147 10.0146 100.379 10.4966Q100.615 10.9785 100.615 11.5527L100.615 12.0894Q100.615 12.667 100.376 13.1489Q100.14 13.6274 99.6787 13.9214Q99.2207 14.2119 98.5542 14.2119Q97.8808 14.2119 97.4194 13.9214Q96.958 13.6274 96.7187 13.1489Q96.4829 12.667 96.4829 12.0894ZM97.6416 11.5527L97.6416 12.0894Q97.6416 12.5166 97.8432 12.8652Q98.0483 13.2139 98.5542 13.2139Q99.0566 13.2139 99.2549 12.8687Q99.4531 12.52 99.4531 12.0894L99.4531 11.5527Q99.4531 11.1255 99.2617 10.7769Q99.0703 10.4282 98.5542 10.4282Q98.0586 10.4282 97.8501 10.7769Q97.6416 11.1255 97.6416 11.5527ZM91.3593 6.26514L91.3593 5.72852Q91.3593 5.15088 91.602 4.66895Q91.8447 4.18701 92.3061 3.89648Q92.771 3.60596 93.4341 3.60596Q94.1074 3.60596 94.5654 3.89648Q95.0234 4.18701 95.2558 4.66895Q95.4917 5.15088 95.4917 5.72852L95.4917 6.26514Q95.4917 6.83936 95.2558 7.32129Q95.02 7.7998 94.5586 8.09033Q94.0971 8.38086 93.4341 8.38086Q92.7607 8.38086 92.2993 8.09033Q91.8379 7.7998 91.5986 7.32129Q91.3593 6.83936 91.3593 6.26514ZM92.5215 5.72852L92.5215 6.26514Q92.5215 6.69238 92.7231 7.04102Q92.9282 7.38623 93.4341 7.38623Q93.9331 7.38623 94.1313 7.04102Q94.333 6.69238 94.333 6.26514L94.333 5.72852Q94.333 5.29785 94.1382 4.94922Q93.9467 4.60059 93.4341 4.60059Q92.935 4.60059 92.7265 4.95264Q92.5215 5.30127 92.5215 5.72852ZM91.831 14L98.831 3.81787L100.02 3.81787L93.0205 14L91.831 14Z" fill-rule="nonzero" transform="matrix(1 0 0 1 19 223)" fill="rgb(75, 85, 99)"/>
		<path d="M8.84912 5.29102L8.84912 6.28564L7.37939 6.28564L7.37939 14L6.29932 14L6.29932 12.1099L6.55225 12.8516Q6.06348 12.1099 5.56445 11.481Q5.06885 10.8486 4.51514 10.459Q3.96143 10.0659 3.30518 10.0659Q2.78564 10.0659 2.42676 10.3325Q2.07129 10.5991 2.07129 11.1289Q2.07129 11.5903 2.40625 11.9082Q2.74463 12.2227 3.40088 12.4448L3.05225 13.5249Q2.29688 13.2583 1.8252 12.8823Q1.35693 12.5029 1.13818 12.0483Q0.922852 11.5903 0.922852 11.0879Q0.922852 10.4146 1.25098 9.9668Q1.58252 9.51904 2.0918 9.29004Q2.60449 9.05762 3.12061 9.05762Q3.96143 9.05762 4.59717 9.36523Q5.23633 9.67285 5.71826 10.1924Q6.20361 10.7085 6.59326 11.3545L6.35742 11.3955Q6.32666 11.0742 6.31299 10.7461Q6.29932 10.4146 6.29932 10.0659L6.29932 6.28564L-0.140137 6.28564L-0.140137 5.29102L8.84912 5.29102ZM4.18701 9.47803Q4.18701 9.56348 4.18018 9.64893Q4.17334 9.73096 4.15967 9.81299L3.09326 9.4917Q3.06592 8.68164 2.81299 8.19287Q2.56348 7.70068 2.0166 7.44092Q1.46973 7.18115 0.533203 7.08545L0.714355 6.07715L1.35693 6.2583Q2.03027 6.31299 2.55322 6.53174Q3.07959 6.74707 3.44189 7.14014Q3.80762 7.5332 3.99561 8.11426Q4.18701 8.69531 4.18701 9.47803Z" fill-rule="nonzero" transform="matrix(1 0 0 1 189 195)" fill="rgb(75, 85, 99)"/>
		<path d="M12.5737 5.29102L12.5737 6.28564L11.1005 6.28564L11.1005 14L10.0239 14L10.0239 7.43408Q9.8564 6.95898 9.52486 6.62402Q9.19673 6.28564 8.68062 6.28564L8.56783 6.28564L8.56783 5.29102L8.77632 5.29102Q9.1147 5.29102 9.47701 5.50977Q9.84273 5.7251 10.0649 6.17285Q10.0512 6.10449 10.0376 5.85156Q10.0239 5.59863 10.0239 5.41748L10.0239 4.36816L10.7793 4.36816L11.0869 5.29102L12.5737 5.29102Z" fill-rule="nonzero" transform="matrix(1 0 0 1 189 195)" fill="rgb(75, 85, 99)"/>
		<path d="M24.2342 5.29102L24.2342 6.28564L18.5638 6.28564L18.5638 11.1289Q18.5638 11.7476 18.6321 12.0005Q18.7039 12.25 18.803 12.3628Q19.0526 12.6567 19.5721 12.6567Q20.119 12.6567 20.6077 12.3901Q21.0965 12.1235 21.4622 11.7305Q21.869 11.2964 22.0843 10.8076Q22.303 10.3188 22.303 9.81299Q22.303 9.36523 22.0775 9.13623Q21.8553 8.90381 21.3358 8.90381Q21.1683 8.90381 20.97 8.93115Q20.7752 8.9585 20.5941 9.00293L20.4402 8.0083Q20.7068 7.93652 20.994 7.89551Q21.2811 7.85449 21.6024 7.85449Q22.1185 7.85449 22.5252 8.05273Q22.9319 8.24756 23.1609 8.66797Q23.3934 9.08496 23.3934 9.7583Q23.3934 10.5854 22.9866 11.3613Q22.5833 12.1372 21.9647 12.6704Q21.4485 13.1182 20.8367 13.3916Q20.2283 13.665 19.5003 13.665Q18.9842 13.665 18.6116 13.5112Q18.2425 13.3574 18.0032 13.1182Q17.7811 12.8516 17.6341 12.4756Q17.4871 12.0962 17.4871 11.3271L17.4871 6.28564L16.0174 6.28564L16.0174 5.29102L24.2342 5.29102ZM21.6844 5.29102Q21.6707 4.7168 21.3699 4.49463Q21.0692 4.26904 20.4539 4.26904L19.2508 4.26904Q18.3416 4.26904 17.8426 4.146Q17.347 4.01953 16.9949 3.75293Q16.619 3.47266 16.4276 3.03174Q16.2396 2.59082 16.2396 2.03027Q16.2396 1.84912 16.2601 1.66797Q16.2806 1.4834 16.3113 1.2749L17.347 1.34326Q17.3196 1.49707 17.3026 1.63037Q17.2889 1.76367 17.2889 1.90381Q17.2889 2.21143 17.3504 2.45068Q17.4153 2.68652 17.5555 2.84033Q17.7503 3.06592 18.1229 3.18555Q18.4954 3.30518 19.179 3.30518L19.5721 3.30518Q19.8113 3.30518 20.1326 3.33252Q20.4539 3.35986 20.9427 3.45215Q21.4349 3.54102 22.1629 3.72559Q22.3987 3.94775 22.5389 4.33398Q22.679 4.7168 22.6927 5.29102L21.6844 5.29102ZM16.2977 5.29102L16.2977 6.28564L14.8245 6.28564L14.8245 14L13.7479 14L13.7479 6.28564L12.2918 6.28564L12.2918 5.29102L13.5804 5.29102Q13.3548 5.02441 13.1224 4.73047Q12.8934 4.43652 12.7122 4.14258Q13.1873 3.31885 13.7342 2.63867Q14.2811 1.9585 15.0228 1.56201Q15.7645 1.16211 16.8138 1.16211Q17.8084 1.16211 18.6526 1.46973Q19.5003 1.77734 20.348 2.35156Q21.1956 2.92578 22.1629 3.72559L21.6024 4.36816Q20.8743 3.79395 20.2659 3.38037Q19.6575 2.9668 19.1243 2.69678Q18.5911 2.42334 18.0716 2.29004Q17.5555 2.15674 16.9813 2.15674Q16.2122 2.15674 15.6517 2.43018Q15.0911 2.70361 14.6776 3.18555Q14.2674 3.66748 13.9153 4.29639Q14.0281 4.5083 14.223 4.76123Q14.4212 5.01074 14.6707 5.29102L16.2977 5.29102Z" fill-rule="nonzero" transform="matrix(1 0 0 1 189 195)" fill="rgb(75, 85, 99)"/>
		<path d="M26.0216 14.0786Q25.6559 14.0786 25.3927 13.8154Q25.1295 13.5522 25.1295 13.1831Q25.1295 12.8174 25.3927 12.5542Q25.6559 12.291 26.0216 12.291Q26.3908 12.291 26.654 12.5542Q26.9171 12.8174 26.9171 13.1831Q26.9171 13.4292 26.7941 13.6343Q26.6745 13.8359 26.4728 13.959Q26.2711 14.0786 26.0216 14.0786ZM26.0216 8.41162Q25.6559 8.41162 25.3927 8.14844Q25.1295 7.88525 25.1295 7.51611Q25.1295 7.15039 25.3927 6.88721Q25.6559 6.62061 26.0216 6.62061Q26.3908 6.62061 26.654 6.88721Q26.9171 7.15039 26.9171 7.51611Q26.9171 7.76221 26.7941 7.96729Q26.6745 8.16895 26.4728 8.29199Q26.2711 8.41162 26.0216 8.41162Z" fill-rule="nonzero" transform="matrix(1 0 0 1 189 195)" fill="rgb(75, 85, 99)"/>
		<path d="M39.043 5.20898Q39.6173 5.20898 40.0001 5.32861Q40.3863 5.44482 40.6529 5.68408Q40.9195 5.90967 41.0733 6.23779Q41.2271 6.56592 41.2271 7.14014L41.2271 14L40.1778 14Q40.065 13.5796 39.8531 13.313Q39.6446 13.0464 39.3438 12.9165Q39.043 12.7832 38.6226 12.7832Q38.1202 12.7832 37.6861 12.8379Q37.252 12.8926 36.7803 12.9575Q36.3121 13.019 35.6969 13.019Q35.2218 13.019 34.6749 12.9165Q34.128 12.8105 33.6392 12.5166Q33.1505 12.2227 32.8394 11.6416Q32.5318 11.0605 32.5318 10.1069Q32.5318 9.77197 32.5865 9.40283Q32.6446 9.03027 32.7027 8.72266L33.7794 8.87646Q33.7247 9.08496 33.6734 9.37891Q33.6256 9.67285 33.6256 10.0796Q33.6256 10.6948 33.8067 11.0742Q33.9879 11.4536 34.2955 11.6484Q34.6065 11.8433 34.9825 11.915Q35.3619 11.9834 35.755 11.9834Q36.4522 11.9834 37.0333 11.8672Q37.6143 11.7476 38.3424 11.7476Q38.9439 11.7476 39.3917 11.9219Q39.8428 12.0962 40.1505 12.5166L40.1505 7.51953Q40.1505 7 40.0787 6.77783Q40.0103 6.55225 39.8565 6.41211Q39.6036 6.20361 39.0841 6.20361Q38.5816 6.20361 38.127 6.4292Q37.6724 6.65137 37.3136 7Q36.9581 7.34863 36.753 7.74854Q36.5513 8.14844 36.5513 8.49707Q36.5513 8.63721 36.606 8.79102Q36.6641 8.94482 36.8453 9.05762Q37.0264 9.17041 37.3785 9.17041Q37.5323 9.17041 37.6724 9.15674Q37.8126 9.14307 37.9664 9.12939L38.0621 10.1069Q37.922 10.165 37.6895 10.1924Q37.4605 10.2197 37.1529 10.2197Q36.4659 10.2197 35.9532 9.79932Q35.4439 9.37891 35.4439 8.51074Q35.4439 7.95361 35.731 7.37256Q36.0181 6.7915 36.5206 6.30273Q37.0264 5.81055 37.6759 5.50977Q38.3287 5.20898 39.043 5.20898Z" fill-rule="nonzero" transform="matrix(1 0 0 1 189 195)" fill="rgb(75, 85, 99)"/>
		<path d="M41.5351 1.94482Q41.4804 2.64551 41.207 3.20605Q40.9336 3.7666 40.4243 4.08789Q39.9116 4.40918 39.1118 4.40918Q38.3017 4.40918 37.7719 4.08789Q37.2387 3.7666 36.9585 3.21289Q36.6782 2.65918 36.6064 1.9585L37.5737 1.83545Q37.6421 2.60449 37.9804 3.04541Q38.3154 3.48633 39.0571 3.48633Q39.7578 3.48633 40.1235 3.05908Q40.4858 2.63184 40.5542 1.81836L41.5351 1.94482ZM39.686 2.37891Q39.686 2.65918 39.5117 2.81299Q39.3374 2.9668 39.0708 2.9668Q38.7632 2.9668 38.6093 2.79248Q38.4555 2.61816 38.4555 2.33789Q38.4555 2.1123 38.6025 1.94482Q38.7495 1.77734 39.0571 1.77734Q39.3784 1.77734 39.5322 1.93115Q39.686 2.08496 39.686 2.37891Z" fill-rule="nonzero" transform="matrix(1 0 0 1 189 195)" fill="rgb(75, 85, 99)"/>
		<path d="M47.4846 5.29102L47.4846 6.28564L47.2043 6.28564Q46.7702 6.38477 46.2644 6.71289Q45.7619 7.04102 45.3142 7.56738Q44.8664 8.09033 44.5793 8.79102Q44.2922 9.4917 44.2922 10.3325Q44.2922 11.3408 44.593 11.9355Q44.8938 12.5303 45.3415 12.7832Q45.7927 13.0327 46.2404 13.0327Q46.5891 13.0327 46.8249 12.9644Q47.0642 12.8926 47.3718 12.7114L47.864 13.5659Q47.4983 13.8462 47.0642 13.959Q46.6301 14.0684 46.196 14.0684Q45.3142 14.0684 44.634 13.6069Q43.9572 13.1455 43.571 12.3149Q43.1882 11.481 43.1882 10.3599Q43.1882 9.21143 43.6223 8.28174Q44.0564 7.34863 44.7912 6.70605Q45.5261 6.06348 46.4216 5.76953L45.5261 6.23096Q45.2732 6.2583 44.9792 6.27197Q44.6853 6.28564 44.3195 6.28564L42.3611 6.28564L42.3611 5.29102L47.4846 5.29102Z" fill-rule="nonzero" transform="matrix(1 0 0 1 189 195)" fill="rgb(75, 85, 99)"/>
		<path d="M55.4218 5.29102L55.4218 6.28564L49.7548 6.28564L49.7548 11.1289Q49.7548 11.7476 49.8232 12.0005Q49.8916 12.25 49.9907 12.3628Q50.2436 12.6567 50.7597 12.6567Q51.3066 12.6567 51.7954 12.3901Q52.2876 12.1235 52.6499 11.7305Q53.0566 11.2964 53.2719 10.8076Q53.4907 10.3188 53.4907 9.81299Q53.4907 9.36523 53.2651 9.13623Q53.0429 8.90381 52.5268 8.90381Q52.3559 8.90381 52.1611 8.93115Q51.9663 8.9585 51.7817 9.00293L51.6279 8.0083Q51.8945 7.93652 52.1816 7.89551Q52.4687 7.85449 52.79 7.85449Q53.3095 7.85449 53.7128 8.05273Q54.1196 8.24756 54.352 8.66797Q54.5844 9.08496 54.5844 9.7583Q54.5844 10.5854 54.1777 11.3613Q53.771 12.1372 53.1557 12.6704Q52.6362 13.1182 52.0278 13.3916Q51.4194 13.665 50.6914 13.665Q50.1718 13.665 49.7993 13.5112Q49.4301 13.3574 49.1943 13.1182Q48.9687 12.8516 48.8217 12.4756Q48.6748 12.0962 48.6748 11.3271L48.6748 6.28564L47.205 6.28564L47.205 5.29102L55.4218 5.29102ZM52.8754 5.29102Q52.8618 4.7168 52.602 4.46729Q52.3422 4.21436 51.7543 4.21436L50.4384 4.21436Q49.5293 4.21436 49.0302 4.08789Q48.5346 3.96143 48.186 3.69482Q47.8066 3.41455 47.6186 2.97363Q47.4306 2.53271 47.4306 1.97559Q47.4306 1.79102 47.4511 1.6167Q47.4716 1.44238 47.499 1.23047L48.5346 1.30225Q48.5073 1.45605 48.4936 1.57568Q48.4799 1.69531 48.4799 1.83545Q48.4799 2.14307 48.5415 2.38232Q48.6064 2.61816 48.7465 2.77197Q48.9414 2.99756 49.3105 3.10352Q49.6831 3.20605 50.3701 3.20605L51.4604 3.20605Q52.2021 3.20605 52.6362 3.31885Q53.0703 3.43164 53.3779 3.72559Q53.6171 3.94775 53.7436 4.33398Q53.8701 4.7168 53.8837 5.29102L52.8754 5.29102Z" fill-rule="nonzero" transform="matrix(1 0 0 1 189 195)" fill="rgb(75, 85, 99)"/>
		<path d="M65.6567 5.29102L65.6567 6.28564L64.187 6.28564L64.187 14L63.1103 14L63.1103 9.31055L63.1923 9.67285Q62.8847 9.2251 62.5395 8.96191Q62.1977 8.69531 61.7944 8.69531Q61.5825 8.69531 61.3637 8.77393Q61.1484 8.84912 61.0014 9.06104Q60.8544 9.26953 60.8544 9.70361Q60.8544 9.85742 60.8613 9.97705Q60.8681 10.0933 60.8818 10.2061L59.9726 10.2744Q59.9179 9.70361 59.665 9.30371Q59.412 8.90381 59.0463 8.69531Q58.684 8.4834 58.2636 8.4834Q57.8876 8.4834 57.621 8.63037Q57.3544 8.77734 57.2143 9.02344Q57.0742 9.26953 57.0742 9.57715Q57.0742 10.1343 57.4877 10.5273Q57.9013 10.9204 58.6567 11.187L58.2807 12.2227Q57.6074 12.0107 57.0742 11.6484Q56.5444 11.2827 56.2333 10.7529Q55.9257 10.2197 55.9257 9.51904Q55.9257 8.89014 56.2333 8.43555Q56.5444 7.98096 57.0605 7.72803Q57.58 7.4751 58.1953 7.4751Q58.937 7.4751 59.4667 7.74854Q59.9999 8.02197 60.4477 8.62354L60.2392 8.63721Q60.3793 8.17578 60.7758 7.93311Q61.1757 7.68701 61.6098 7.68701Q62.1157 7.68701 62.478 7.88184Q62.8437 8.07666 63.2778 8.44238L63.1513 8.65088Q63.1376 8.35693 63.124 8.06299Q63.1103 7.76904 63.1103 7.46143L63.1103 6.28564L55.143 6.28564L55.143 5.29102L65.6567 5.29102Z" fill-rule="nonzero" transform="matrix(1 0 0 1 189 195)" fill="rgb(75, 85, 99)"/>
	</g>
</svg>
