<svg width="650" height="369" viewBox="0 0 650 369" fill="none" xmlns="http://www.w3.org/2000/svg">
<path d="M175.427 71.262C194.003 66.85 215.377 68.965 232.253 78.067C247.599 86.344 260.154 100.034 265.13 116.925C267.371 124.534 268.718 134.094 264.781 141.365C273.516 149.466 282.103 157.725 290.539 166.137C290.555 155.819 290.659 145.501 290.848 135.184C290.924 129.558 291.839 122.263 290.51 116.851C293.055 116.268 296.744 116.746 299.111 117.855C298.628 133.967 299.017 150.193 299.065 166.316C306.858 157.715 315.464 149.914 323.367 141.422C324.899 144.247 327.355 146.417 330.241 147.828C320.239 158.53 308.677 168.033 299.009 178.966L298.987 247.158C301.309 244.888 303.693 242.148 306.422 240.397C310.296 235.611 315.488 231.272 319.857 226.87C320.586 227.768 320.942 228.37 321.308 229.471C322.143 231.988 323.255 232.833 325.459 234.272C321.367 238.42 317.057 242.718 312.568 246.429C308.379 251.407 302.577 255.401 299.079 260.882C298.989 265.493 298.936 270.104 298.92 274.716C313.36 274.959 328.38 274.721 342.687 276.69L341.753 276.887C340.468 277.151 339.183 277.265 337.878 277.374C338.401 278.101 339.129 278.158 339.952 278.464C339.395 280.201 338.33 280.841 336.885 281.825L337.534 283.721L337.117 284.559C335.762 284.901 332.668 285.617 331.338 285.316C330.255 285.071 330.304 284.484 329 284.566C325.854 287.092 322.127 288.709 319.018 291.247C319.33 291.19 319.644 291.137 319.956 291.075C321.203 290.829 322.178 290.303 323.268 289.678C323.961 289.721 324.249 289.576 324.761 290.068C326.216 291.467 327.522 291.75 329.455 292.136L329.831 292.759C328.963 294.154 327.825 294.783 326.502 295.684C325.548 296.334 325.257 296.423 325.046 297.589C301.681 312.715 279.828 330.057 259.791 349.376C257.421 351.616 252.108 355.662 251.031 358.572L252.407 360.047C252.146 362.046 251.768 364.934 250.387 366.445C242.79 368.347 233.336 367.365 225.473 367.356L186.498 367.295C181.392 367.29 175.115 366.587 170.218 367.827C135.518 368.23 100.78 367.908 66.077 367.932L24.566 367.969C18.233 367.977 11.8 368.282 5.48203 368.038C4.45003 367.998 3.47904 367.867 2.53104 367.427C1.35004 366.878 0.748044 366.034 0.417044 364.793C0.0800441 363.528 0.303032 361.855 1.03603 360.783C1.71103 359.795 2.67304 359.119 3.83204 358.837C11.257 357.032 31.123 359.515 40.646 358.542C40.856 358.52 41.066 358.494 41.276 358.47C76.92 330.779 117.952 310.377 160.7 296.236C160.557 286.989 160.464 277.741 160.423 268.493C155.74 266.853 151.653 264.524 148.682 260.44C145.548 256.137 144.291 250.748 145.197 245.503C146.151 240.238 149.224 235.595 153.698 232.661C158.057 229.763 163.439 228.845 168.512 230.135C173.84 231.406 178.423 234.788 181.21 239.503C183.805 243.922 184.264 249.466 182.766 254.351C180.635 261.296 175.371 264.814 169.297 267.982C168.914 276.48 169.061 285.013 169.079 293.519C179.816 289.327 192.161 286.967 203.476 284.736C232.532 279.007 261.198 275.374 290.828 274.486C290.765 269.722 290.882 264.945 290.923 260.18C281.778 251.664 273.14 241.808 263.325 234.143C257.92 235.943 252.487 237.376 246.768 237.611C229.322 238.328 213.245 231.148 200.645 219.353C184.274 204.027 177.017 181.602 176.33 159.646C188.096 156.756 201.502 156.464 213.385 158.754C232.144 162.367 249.776 172.398 260.526 188.514C268.358 200.256 270.946 212.929 268.175 226.715C275.985 231.874 284.042 240.656 290.441 247.56L290.535 178.75L258.314 147.432C254.197 148.499 250.029 149.463 245.779 149.78C229.682 150.982 213.865 143.917 201.944 133.455C183.371 117.157 177.013 95.155 175.427 71.262Z" fill="url(#paint0_linear_23_71)"/>
<path d="M329 284.566C325.854 287.092 322.127 288.709 319.018 291.247C314.742 292.838 309.995 297.002 306.195 299.694C281.676 316.825 259.06 336.53 238.734 358.474C221.391 358.839 204.022 358.411 186.671 358.734C197.776 350.506 208.354 341.558 219.548 333.456C240.258 318.466 262.047 305.496 284.643 293.6C289.694 290.941 295.409 286.435 300.976 285.224C309.806 283.305 319.461 285.72 328.445 284.641C328.63 284.619 328.815 284.591 329 284.566Z" fill="#092D35"/>
<path d="M319.857 226.87C320.586 227.768 320.942 228.37 321.308 229.471C322.143 231.988 323.255 232.833 325.459 234.272C321.367 238.42 317.057 242.718 312.568 246.429C313.281 243.102 316.615 241.761 318.116 238.833C317.49 238.325 316.888 237.905 316.48 237.191C316.082 236.494 315.712 235.772 315.313 235.072C312.354 234.129 309.93 238.985 307.234 240.09C306.966 240.2 306.693 240.295 306.422 240.397C310.296 235.611 315.488 231.272 319.857 226.87Z" fill="#ADD763"/>
<path d="M130.939 352.717C136.297 348.292 142.265 344.405 147.978 340.454C173.634 322.902 200.893 307.816 229.391 295.399C236.491 292.289 243.878 288.813 251.437 287.009C261.596 284.584 272.253 285.839 282.517 284.686C255.82 297.615 226.374 316.562 202.879 334.749C197.09 339.23 191.414 343.856 185.858 348.622C182.048 351.893 178.245 355.646 174.103 358.475C158.142 358.693 142.179 358.802 126.216 358.803L124.069 358.851L123.591 358.344C125.373 356.054 128.532 354.358 130.939 352.717Z" fill="#092D35"/>
<path d="M130.939 352.717C131.062 353.568 131.216 353.563 130.74 354.337C131.026 355.665 131.461 357.039 131.292 358.403L130.688 358.387C129.081 358.356 127.773 358.411 126.216 358.803L124.069 358.851L123.591 358.344C125.373 356.054 128.532 354.358 130.939 352.717Z" fill="#042515"/>
<path d="M194.911 168.617C196.475 168.494 198.044 168.438 199.613 168.45C217.283 168.458 233.692 174.533 246.185 187.185C256.538 197.67 259.595 208.821 259.428 223.285L254.339 225.229C244.715 227.539 235.199 226.696 226.067 222.848C211.389 216.662 200.208 204.293 194.341 189.62C192.554 185.151 188.829 175.6 191.337 171.081C192.17 169.579 193.403 169.183 194.911 168.617Z" fill="#092D35"/>
<path d="M208.326 176.589C215.953 176.232 224.044 179.605 230.497 183.429C240.57 189.398 249.844 199.939 252.529 211.576C253.024 213.726 253.026 216.158 251.627 218.003C250.15 219.949 247.658 219.829 245.45 220.021C238.188 219.915 231.461 218.402 225.007 215.014C214.969 209.744 204.298 198.547 201.108 187.486C200.417 185.091 200.258 182.268 201.597 180.055C203.042 177.665 205.82 177.201 208.326 176.589Z" fill="#E3EFAA"/>
<path d="M220.627 183.271C221.936 183.552 223.152 183.903 224.068 184.958C225.032 186.068 225.291 187.551 225.016 188.967C224.396 192.148 222.412 194.356 219.851 196.167C218.772 195.924 217.793 195.77 216.909 195.046C215.88 194.202 215.538 193.121 215.516 191.832C215.46 188.635 218.405 185.229 220.627 183.271Z" fill="#092D35"/>
<path d="M233.702 199.321C235.529 199.628 236.832 200.088 237.868 201.796C238.726 203.211 238.751 204.725 238.331 206.274C237.786 208.284 236.68 208.977 234.974 209.955C233.777 209.673 232.204 209.275 231.204 208.497C230.256 207.76 229.579 206.777 229.572 205.535C229.557 202.8 231.813 200.931 233.702 199.321Z" fill="#092D35"/>
<path d="M213.835 292.12L214.621 292.179C203.276 297.968 191.698 303.287 180.555 309.47C154.967 323.669 131.998 340.339 109.217 358.65C92.394 359.696 75.255 358.532 58.375 358.972L57.387 358.74C57.472 358.586 57.541 358.422 57.643 358.278C59.695 355.379 71.224 348.914 74.693 346.745C111.114 324.107 150.828 307.259 192.417 296.803C199.496 294.96 206.716 293.796 213.835 292.12Z" fill="#092D35"/>
<path d="M198.126 83.121C206.195 82.728 213.846 83.305 221.433 86.247C235.275 91.614 247.259 102.126 253.234 115.821C255.375 120.728 258.093 129.015 255.766 134.135C254.76 136.348 252.484 137.057 250.37 137.803C241.401 139.837 231.584 138.059 223.382 134.117C209.012 127.209 199.111 114.891 193.988 99.934C192.627 95.962 190.745 90.218 192.922 86.267C194.098 84.133 195.945 83.661 198.126 83.121Z" fill="#092D35"/>
<path d="M205.61 90.211C208.848 90.037 212.005 90.321 215.143 91.137C227.17 94.264 237.784 102.593 244.018 113.279C246.922 118.257 250.13 124.165 248.574 130.035C247.651 131.374 246.553 131.584 245.084 132.044C240.099 132.156 235.473 131.51 230.758 129.837C218.845 125.609 208.627 116.011 203.351 104.565C201.857 101.325 200.218 97.049 201.713 93.538C202.501 91.687 203.789 90.861 205.61 90.211Z" fill="#E3EFAA"/>
<path d="M223.188 101.339C224.319 102.111 225.391 102.937 225.789 104.326C226.26 105.969 225.99 107.382 225.063 108.777C223.515 111.102 221.782 111.917 219.123 112.503C218.117 112.099 217.359 111.64 216.482 111.004C216.092 109.896 215.853 109.464 216.16 108.285C216.938 105.299 220.663 102.762 223.188 101.339Z" fill="#092D35"/>
<path d="M163.634 239.114C168.923 238.651 173.609 242.508 174.172 247.787C174.735 253.066 170.968 257.824 165.701 258.487C162.203 258.928 158.741 257.445 156.647 254.609C154.552 251.774 154.153 248.028 155.602 244.815C157.051 241.601 160.123 239.421 163.634 239.114Z" fill="#092D35"/>
<path d="M543.277 139.503C545.911 132.977 548.987 127.982 555.864 125.232C561.06 123.154 566.213 123.642 571.222 126.007C575.771 128.155 579.54 131.743 581.279 136.528C583.129 141.618 582.689 147.121 580.199 151.908C577.595 156.911 573.112 161.039 567.606 162.547C562.66 163.901 557.102 163.288 552.72 160.562C548.009 157.63 545.196 152.983 543.126 147.975C533.768 147.882 524.383 147.628 515.027 147.732C512.533 154.096 509.808 158.995 503.263 161.971C502.125 162.489 500.923 162.905 499.748 163.326C499.524 176.225 500.937 242.127 498.544 248.027C492.949 249.968 474.507 248.966 467.485 248.968C449.108 248.973 430.681 248.675 412.309 249.044C401.337 260.138 390.17 271.036 378.812 281.734C410.496 285.539 441.905 296.297 471.134 308.74C477.568 311.478 493.634 320.71 497.668 321.675C499.819 323.281 502.395 324.794 505.001 325.519C506.555 327.587 513.411 330.972 516.029 332.736C526.574 339.84 539.036 347.488 547.482 356.957C549.88 351.891 553.065 342.63 557.635 339.405C559.509 337.71 561.287 336.491 563.784 335.904C569.846 334.478 576.87 335.192 583.079 335.214L610.7 335.274C612.007 329.55 614.666 324.267 619.697 320.935C623.79 318.224 629.047 317.388 633.823 318.415C639.259 319.583 644.35 323.332 647.155 328.116C649.745 332.532 650.389 338.113 649.03 343.039C647.602 348.215 643.795 352.506 639.165 355.105C634.736 357.59 630.132 358.39 625.204 356.96C618.862 355.119 614.421 350.618 611.504 344.857C611.357 344.566 611.221 344.268 611.079 343.974C602.183 344.024 593.287 344.024 584.391 343.974C579.062 343.931 573.264 343.439 567.998 344.123C566.37 344.335 564.77 344.682 563.544 345.85C561.7 347.606 560.469 350.369 559.272 352.604C558.681 354.669 557.818 356.543 556.93 358.491C563.146 358.579 588.99 357.79 593.425 359.096C594.176 359.317 594.927 360.082 595.444 360.641C596.55 361.837 597.006 362.97 596.902 364.618C596.086 366.176 595.083 366.792 593.441 367.316C587.422 369.234 571.176 367.956 564.042 367.982L486.311 368.033L277.104 367.937C241.499 367.912 205.816 368.345 170.218 367.827C175.115 366.587 181.392 367.29 186.498 367.295L225.473 367.356C233.336 367.365 242.79 368.347 250.387 366.445C251.768 364.934 252.146 362.046 252.407 360.047L251.031 358.572C252.108 355.662 257.421 351.616 259.791 349.376C279.828 330.057 301.681 312.715 325.046 297.589C325.257 296.423 325.548 296.334 326.502 295.684C327.825 294.783 328.963 294.154 329.831 292.759L329.455 292.136C327.522 291.75 326.216 291.467 324.761 290.068C324.249 289.576 323.961 289.721 323.268 289.678C322.178 290.303 321.203 290.829 319.956 291.075C319.644 291.137 319.33 291.19 319.018 291.247C322.127 288.709 325.854 287.092 329 284.566C330.304 284.484 330.255 285.071 331.338 285.316C332.668 285.617 335.762 284.901 337.117 284.559L337.534 283.721L336.885 281.825C338.33 280.841 339.395 280.201 339.952 278.464C339.129 278.158 338.401 278.101 337.878 277.374C339.183 277.265 340.468 277.151 341.753 276.887L342.687 276.69C351.292 277.441 359.858 278.692 368.419 279.832C376.623 271.851 384.77 263.812 392.861 255.715C397.929 250.639 402.893 245.151 408.311 240.475L491.453 240.56C491.502 215.326 490.691 188.244 491.86 163.197C485.823 160.937 480.367 157.844 477.482 151.723C475.271 147.031 475.391 141.358 477.259 136.574C479.079 131.809 482.743 127.979 487.423 125.95C492.322 123.834 498.341 123.68 503.292 125.719C508.036 127.672 511.618 131.903 513.472 136.61C513.856 137.593 514.22 138.585 514.564 139.583L543.277 139.503Z" fill="url(#paint1_linear_23_71)"/>
<path d="M343.437 286.853C351.083 287.076 358.59 288.368 366.181 289.181C359.723 294.717 353.016 299.957 346.674 305.626C334.288 316.743 322.574 328.587 311.594 341.095C306.564 346.723 301.291 352.339 296.91 358.495L251.031 358.572C252.108 355.662 257.421 351.616 259.791 349.376C279.828 330.057 301.681 312.715 325.046 297.589C331.183 294.033 337.234 290.288 343.437 286.853Z" fill="#092D35"/>
<path d="M610.7 335.274C612.007 329.55 614.666 324.267 619.697 320.935C623.79 318.224 629.047 317.388 633.823 318.415C639.259 319.583 644.35 323.332 647.155 328.116C649.745 332.532 650.389 338.113 649.03 343.039C647.602 348.215 643.795 352.506 639.165 355.105C634.736 357.59 630.132 358.39 625.204 356.96C618.862 355.119 614.421 350.618 611.504 344.857C611.357 344.566 611.221 344.268 611.079 343.974C602.183 344.024 593.287 344.024 584.391 343.974C579.062 343.931 573.264 343.439 567.998 344.123C566.37 344.335 564.77 344.682 563.544 345.85C561.7 347.606 560.469 350.369 559.272 352.604C559.182 351.679 559.284 350.973 559.535 350.089C563.459 336.244 583.523 346.646 591.786 341.987L590.353 341.223L590.269 340.548C591.464 340.169 592.374 340.198 593.607 340.196C594.645 339.092 595.516 338.514 597.005 338.19C597.323 338.12 597.643 338.059 597.963 337.993L598.404 337.076C591.906 335.682 571.517 335.273 565 336.516C562.764 336.942 560.76 338.386 558.596 339.098L557.635 339.405C559.509 337.71 561.287 336.491 563.784 335.904C569.846 334.478 576.87 335.192 583.079 335.214L610.7 335.274Z" fill="#71BC50"/>
<path d="M626.98 327.246C632.785 325.584 638.832 328.974 640.444 334.793C642.056 340.613 638.615 346.631 632.782 348.193C627.019 349.736 621.089 346.346 619.496 340.596C617.903 334.846 621.244 328.887 626.98 327.246Z" fill="#092D35"/>
<path d="M378.575 291.388C385.256 291.175 395.256 294.742 402.282 295.879C382.272 314.057 365.748 336.268 350.505 358.485C344.461 358.728 338.38 358.655 332.331 358.695L307.864 358.527C317.623 348.077 326.798 337.212 336.923 327.07C350.02 313.951 363.909 302.657 378.575 291.388Z" fill="#092D35"/>
<path d="M412.398 297.997C418.919 301.247 428.338 303.083 435.412 305.086C421.501 319.917 410.455 340.499 401.168 358.467L385.75 358.5L361.824 358.519C371.579 344.397 381.663 330.634 393.168 317.867C399.338 311.021 406.389 304.98 412.398 297.997Z" fill="#092D35"/>
<path d="M443.968 308.349C451.627 311.062 459.052 313.889 466.306 317.596C466.279 317.669 466.251 317.741 466.226 317.815C461.493 331.699 453.684 344.697 448.435 358.469L433.75 358.506L410.665 358.569C420.605 340.684 431.579 324.612 443.968 308.349Z" fill="#092D35"/>
<path d="M474.642 320.706C482.572 325.206 490.965 328.679 498.699 333.582C496.586 342.121 493.698 350.537 491.27 359.001L482.25 358.993C474.04 359.015 465.83 358.97 457.621 358.857C462.354 345.86 468.695 333.19 474.642 320.706Z" fill="#092D35"/>
<path d="M492.259 132.73C496.196 131.606 500.434 132.685 503.354 135.557C506.273 138.428 507.423 142.648 506.364 146.604C505.305 150.559 502.2 153.64 498.237 154.668C492.211 156.232 486.048 152.659 484.411 146.652C482.774 140.646 486.272 134.44 492.259 132.73Z" fill="#092D35"/>
<path d="M560.495 132.343C566.635 130.977 572.712 134.874 574.031 141.024C575.351 147.174 571.408 153.222 565.248 154.495C559.153 155.755 553.184 151.863 551.878 145.778C550.572 139.693 554.42 133.694 560.495 132.343Z" fill="#092D35"/>
<path d="M505.91 337.982C509.682 340.194 534.999 356.194 536.312 358.286C534.454 358.822 532.302 358.676 530.375 358.717L500.114 358.716C502.128 351.88 504.484 344.959 505.91 337.982Z" fill="#092D35"/>
<path d="M319.857 226.87C319.882 226.699 319.923 226.53 319.933 226.358C319.982 225.452 319.764 224.826 319.548 223.961C316.64 212.318 320.732 199.63 326.832 189.742C336.782 173.611 355.444 162.051 373.71 157.891C385.72 155.156 399.501 155.058 411.487 157.99C412.191 180.412 406.893 198.786 391.217 215.488C379.822 227.629 363.246 237.038 346.285 237.547C341.574 237.688 326.96 233.854 325.459 234.272C323.255 232.833 322.143 231.988 321.308 229.471C320.942 228.37 320.586 227.768 319.857 226.87Z" fill="#97C218"/>
<path d="M388.7 167.716C389.387 167.683 390.061 167.657 390.748 167.673C392.945 167.723 395.226 167.768 396.794 169.533C397.958 170.843 397.804 172.523 397.661 174.168C396.34 189.396 387.903 204.673 376.141 214.307C365.007 223.427 352.636 227.343 338.378 225.919C336.179 225.624 333.849 225.49 332.062 224.035C329.969 222.331 329.127 219.467 329.012 216.867C328.551 206.48 334.829 194.773 341.632 187.311C354.039 173.702 370.806 168.603 388.7 167.716Z" fill="#092D35"/>
<path d="M373.764 177.069C377.168 176.754 381.436 176.737 384.377 178.735C385.775 179.686 386.609 181.057 386.867 182.722C387.671 187.899 383.546 194.97 380.651 199.084C373.357 209.448 362.705 217.201 350.12 219.344C346.555 219.737 341.621 220.401 338.475 218.327C337.34 217.578 336.632 216.436 336.373 215.108C335.394 210.098 339.418 202.631 342.07 198.462C349.309 187.082 360.787 179.993 373.764 177.069Z" fill="#97C218"/>
<path d="M364.926 189.423C365.493 189.442 366.06 189.464 366.623 189.533C368.2 189.725 369.849 190.802 370.723 192.153C371.459 193.291 371.773 194.413 371.466 195.758C371.1 197.363 370.174 197.933 368.922 198.806C366.861 198.593 364.636 198.15 363.171 196.527C362.335 195.602 361.863 194.325 362.113 193.075C362.439 191.441 363.743 190.462 364.926 189.423Z" fill="#0E1926"/>
<path d="M352.942 199.941C354.712 199.792 357.36 199.765 358.766 201.088C359.729 201.994 360.181 202.813 360.063 204.166C359.921 205.783 358.47 206.947 357.368 207.98C355.403 208.14 353.529 208.086 351.942 206.754C350.949 205.921 350.482 204.846 350.519 203.541C350.564 201.967 351.882 200.917 352.942 199.941Z" fill="#0E1926"/>
<path d="M290.51 116.851C277.478 107.995 266.879 91.924 263.951 76.462C260.113 56.194 266.865 37.064 278.285 20.438C283.301 13.214 289.013 6.5 295.34 0.391998C312.177 15.485 326.581 38.517 327.835 61.582C328.779 78.937 321.464 94.929 309.952 107.556C306.736 111.083 302.975 115.062 299.111 117.855C296.744 116.746 293.055 116.268 290.51 116.851Z" fill="url(#paint2_linear_23_71)"/>
<path d="M294.64 23.89C298.678 25.285 301.457 28.321 303.924 31.69C312.497 43.398 318.144 58.107 315.744 72.763C313.587 85.931 306.073 97.207 295.338 104.962C291.947 104.351 287.417 98.726 285.272 96.163C277.05 86.339 273.073 74.307 274.28 61.502C275.63 47.176 283.602 33.023 294.64 23.89Z" fill="#092D35"/>
<path d="M294.486 36.383C298.288 37.202 301.077 39.976 303.266 43.076C308.983 51.171 310.546 62.663 308.941 72.273C307.435 81.296 302.829 90.219 295.342 95.636C291.691 94.23 288.865 90.936 286.776 87.696C280.951 78.662 279.184 66.687 281.552 56.252C283.293 48.579 287.736 40.642 294.486 36.383Z" fill="#FDDB36"/>
<path d="M297.756 58.752C300.073 57.891 302.648 59.083 303.493 61.406C304.338 63.73 303.13 66.297 300.801 67.126C298.493 67.948 295.956 66.753 295.119 64.451C294.282 62.149 295.459 59.604 297.756 58.752Z" fill="#092D35"/>
<path d="M323.367 141.422C319.624 133.615 320.892 123.277 323.648 115.299C329.36 98.761 343.019 84.647 358.71 77.177C375.461 69.11 394.376 66.69 412.618 70.28C413.807 91.253 407.083 111.028 393.075 126.775C381.255 140.063 364.778 149.462 346.765 150.413C341.01 150.716 335.669 149.654 330.241 147.828C327.355 146.417 324.899 144.247 323.367 141.422Z" fill="#FDDB36"/>
<path d="M387.31 82.217C390.016 82.152 393.218 81.974 395.399 83.885C397.074 85.353 397.686 87.475 397.682 89.643C397.658 100.671 387.632 115.333 380.008 122.766C369.7 132.815 357.484 139.185 342.945 139.019C340.507 138.673 337.345 138.189 335.37 136.621C333.484 135.122 332.482 133.022 332.252 130.655C331.346 121.336 337.938 109.687 343.88 102.935C355.346 89.907 370.181 83.339 387.31 82.217Z" fill="#092D35"/>
<path d="M377.248 91.104C379.566 90.93 382.069 90.846 384.148 92.053C385.564 92.875 386.335 94.073 386.688 95.672C387.678 100.164 384.011 106.769 381.637 110.471C374.205 122.06 362.872 129.062 349.594 131.98C346.557 132.319 343.578 132.736 340.665 131.616C339.843 130.771 339.478 130.494 339.254 129.293C338.299 124.168 343.039 115.303 345.866 111.146C353.001 100.654 364.873 93.471 377.248 91.104Z" fill="#FDDB36"/>
<path d="M364.909 102.207C365.95 102.81 366.946 103.439 367.866 104.219C369.519 105.619 371.615 107.604 371.487 109.999C371.397 111.682 370.435 112.368 369.376 113.488C368.321 113.339 367.154 113.077 366.219 112.544C364.816 111.745 363.675 110.314 363.314 108.742C362.717 106.144 363.578 104.389 364.909 102.207Z" fill="#0E1926"/>
<path d="M93.449 191.069C96.968 190.743 100.089 190.823 103.403 192.188C108.42 194.269 112.362 198.321 114.303 203.394C116.195 208.273 116.143 213.832 113.82 218.557C111.149 223.993 106.624 226.75 101.083 228.588L100.987 267.697C106.368 269.689 110.772 272.772 113.262 278.147C115.54 283.063 115.543 289.063 113.567 294.08C111.622 299.029 107.699 302.94 102.744 304.869C97.975 306.775 92.416 306.898 87.704 304.757C81.523 301.95 78.418 296.204 76.137 290.163C64.806 290.715 53.339 290.419 41.987 290.447C41.396 292.55 40.748 294.689 39.666 296.599C36.577 302.054 32.012 304.719 26.161 306.377C22.18 306.671 18.384 306.513 14.652 304.935C10.154 303.031 6.61898 299.385 4.85698 294.829C2.75098 289.523 2.93999 283.582 5.38099 278.422C7.61899 273.642 11.73 269.997 16.743 268.346C21.435 266.822 27.272 267.051 31.672 269.37C36.451 271.888 39.721 276.524 41.4 281.557L77.349 281.639C78.05 279.752 78.757 277.906 79.799 276.173C83.09 270.701 87.099 268.772 93.033 267.286C92.804 260.589 94.074 232.754 92.363 228.989C91.794 228.845 91.227 228.687 90.657 228.551C89.61 228.301 88.633 228.086 87.655 227.609C82.645 225.159 79.474 220.87 77.938 215.585C76.44 210.516 77.139 205.051 79.865 200.522C83.061 195.215 87.645 192.62 93.449 191.069Z" fill="#E3EFAA"/>
<path d="M19.803 277.317C23.316 276.235 27.14 277.143 29.791 279.689C32.443 282.235 33.506 286.019 32.568 289.573C31.63 293.128 28.839 295.894 25.276 296.8C19.953 298.154 14.522 295.016 13.036 289.728C11.551 284.441 14.553 278.933 19.803 277.317Z" fill="#092D35"/>
<path d="M95.29 276.852C100.785 276.478 105.55 280.615 105.95 286.108C106.351 291.602 102.236 296.386 96.744 296.811C91.216 297.24 86.394 293.092 85.991 287.562C85.588 282.032 89.758 277.229 95.29 276.852Z" fill="#092D35"/>
<path d="M94.01 200.649C99.272 199.337 104.602 202.533 105.924 207.792C107.246 213.051 104.06 218.387 98.8039 219.72C93.5329 221.055 88.179 217.859 86.853 212.586C85.527 207.312 88.734 201.964 94.01 200.649Z" fill="#092D35"/>
<path d="M610.252 203.576C611.798 197.641 614.218 192.414 619.723 189.136C624.178 186.483 629.735 185.988 634.699 187.318C639.918 188.716 644.267 192.038 646.819 196.822C649.365 201.597 649.915 207.654 648.137 212.782C646.428 217.707 642.396 221.663 637.699 223.8C636.61 224.296 635.49 224.727 634.372 225.153C631.883 225.277 629.369 225.157 626.878 225.109C620.282 223.693 616.089 221.377 612.348 215.562C611.502 214.248 610.815 212.828 610.136 211.423L584.976 211.468C583.972 216.881 581.708 221.561 577.034 224.772C572.689 227.758 567.098 228.601 561.974 227.591C556.782 226.567 552.018 223.637 549.145 219.139C546.332 214.735 545.64 209.265 546.856 204.22C548.243 198.469 551.39 194.302 556.593 191.392C560.966 188.946 567.695 188.711 572.373 190.237C577.421 191.884 581.362 195.83 583.684 200.531C584.173 201.535 584.62 202.558 585.026 203.598C593.435 203.649 601.844 203.641 610.252 203.576Z" fill="#71BC50"/>
<path d="M626.501 195.264C630.362 194.084 634.56 195.071 637.491 197.849C640.422 200.626 641.632 204.766 640.66 208.685C639.688 212.604 636.684 215.698 632.795 216.785C626.882 218.437 620.74 215.026 619.017 209.134C617.293 203.241 620.629 197.059 626.501 195.264Z" fill="#092D35"/>
<path d="M564.166 197.615C570.177 196.71 575.8 200.803 576.786 206.802C577.772 212.8 573.756 218.477 567.772 219.545C563.828 220.249 559.81 218.775 557.256 215.688C554.702 212.601 554.008 208.378 555.439 204.636C556.87 200.893 560.204 198.211 564.166 197.615Z" fill="#092D35"/>
<path d="M542.627 282.066C544.374 276.041 546.52 270.717 552.24 267.43C556.739 264.846 562.231 263.959 567.23 265.532C572.112 267.069 576.782 270.874 578.99 275.52C581.05 279.926 581.25 284.976 579.544 289.531C577.625 294.401 573.794 298.271 568.944 300.239C564.344 302.149 559.169 302.127 554.586 300.178C549.554 298.016 546.404 294.088 543.557 289.585L505.15 289.486C505.323 301.472 505.41 313.537 505.001 325.519C502.395 324.794 499.819 323.281 497.668 321.675C497.479 314.018 496.304 288.881 498.375 283.089C501.653 281.32 536.238 282.163 542.627 282.066Z" fill="#7BE0EE"/>
<path d="M560.135 272.667C565.869 271.608 571.389 275.357 572.518 281.077C573.648 286.798 569.968 292.363 564.262 293.564C560.508 294.354 556.618 293.063 554.081 290.186C551.543 287.308 550.749 283.288 552.002 279.662C553.255 276.035 556.362 273.363 560.135 272.667Z" fill="#092D35"/>
<path d="M626.55 249.428C629.177 248.84 631.901 248.831 634.532 249.4C643.795 251.406 650.061 260.066 649.069 269.491C648.077 278.917 640.145 286.083 630.667 286.115C621.19 286.148 613.209 279.037 612.152 269.618C611.095 260.2 617.301 251.497 626.55 249.428Z" fill="#7BE0EE"/>
<path d="M627.517 257.611C632.998 255.877 638.847 258.916 640.58 264.398C642.313 269.88 639.273 275.728 633.791 277.46C628.31 279.192 622.463 276.153 620.73 270.672C618.998 265.191 622.036 259.344 627.517 257.611Z" fill="#092D35"/>
<path d="M626.878 225.109C629.369 225.157 631.883 225.277 634.372 225.153C634.368 233.218 634.162 241.346 634.532 249.4C631.901 248.831 629.177 248.84 626.55 249.428L626.878 225.109Z" fill="#68C7D6"/>
<path d="M590.415 235.831C591.8 235.155 593.445 235.296 594.696 236.197C595.947 237.098 596.601 238.614 596.399 240.142C596.196 241.671 595.17 242.964 593.728 243.508C591.636 244.298 589.293 243.304 588.407 241.251C587.521 239.198 588.405 236.811 590.415 235.831Z" fill="#7BE0EE"/>
<defs>
<linearGradient id="paint0_linear_23_71" x1="283.12" y1="350.505" x2="82.5277" y2="187.991" gradientUnits="userSpaceOnUse">
<stop stop-color="#A9DC68"/>
<stop offset="1" stop-color="#FDFECC"/>
</linearGradient>
<linearGradient id="paint1_linear_23_71" x1="550.524" y1="403.985" x2="384.696" y2="216.077" gradientUnits="userSpaceOnUse">
<stop stop-color="#5AB047"/>
<stop offset="1" stop-color="#B0DA71"/>
</linearGradient>
<linearGradient id="paint2_linear_23_71" x1="327.623" y1="67.7967" x2="264.684" y2="51.6894" gradientUnits="userSpaceOnUse">
<stop stop-color="#F9E64B"/>
<stop offset="1" stop-color="#EFF291"/>
</linearGradient>
</defs>
</svg>
