<?xml version="1.0" encoding="utf-8" ?>
<svg xmlns="http://www.w3.org/2000/svg" xmlns:xlink="http://www.w3.org/1999/xlink" width="20" height="20" viewBox="0 0 20 20">
	<defs>
		<clipPath id="clipPath5943794420">
			<path d="M0 0L20 0L20 20L0 20L0 0Z" fill-rule="nonzero" transform="matrix(1 0 0 1 0 0)"/>
		</clipPath>
	</defs>
	<g clip-path="url(#clipPath5943794420)">
		<defs>
			<clipPath id="clipPath9665688786">
				<path d="M0 0L20 0L20 20L0 20L0 0Z" fill-rule="nonzero" transform="matrix(1 0 0 1 -0 -0)"/>
			</clipPath>
		</defs>
		<g clip-path="url(#clipPath9665688786)">
			<path d="M19.375 12.5L2.5 12.5L2.5 0.625C2.5 0.279688 2.22031 0 1.875 0L0.625 0C0.279687 0 0 0.279688 0 0.625L0 13.75C0 14.4402 0.559766 15 1.25 15L19.375 15C19.7203 15 20 14.7203 20 14.375L20 13.125C20 12.7797 19.7203 12.5 19.375 12.5ZM18.125 1.25L13.5133 1.25C12.6781 1.25 12.2598 2.25977 12.8504 2.85039L14.116 4.11602L11.25 6.98242L8.38398 4.11641C7.8957 3.62813 7.1043 3.62813 6.61641 4.11641L3.9332 6.79961C3.68906 7.04375 3.68906 7.43945 3.9332 7.68359L4.8168 8.56719C5.06094 8.81133 5.45664 8.81133 5.70078 8.56719L7.5 6.76758L10.366 9.63359C10.8543 10.1219 11.6457 10.1219 12.1336 9.63359L15.8836 5.88359L17.1492 7.14922C17.7398 7.73984 18.7496 7.32148 18.7496 6.48633L18.7496 1.875C18.75 1.52969 18.4703 1.25 18.125 1.25Z" fill-rule="nonzero" transform="matrix(1 0 0 1 0 2.5)" fill="rgb(59, 130, 246)"/>
		</g>
	</g>
</svg>
