<?xml version="1.0" encoding="utf-8" ?>
<svg xmlns="http://www.w3.org/2000/svg" xmlns:xlink="http://www.w3.org/1999/xlink" width="1024" height="1024">
	<path fill="#1EA145" transform="scale(2 2)" d="M254.198 71.3465C269.422 68.6961 305.859 91.0208 316.94 100.125C338.059 75.3854 353.599 71.7073 386.27 71.7534C409.675 71.7864 418.213 66.9797 414.221 94.0101C410.953 116.136 399.896 129.519 382.84 142.19C387.053 149.25 390.169 158.236 393.077 165.888C415.877 225.892 410.535 284.196 378.784 339.384C369.266 355.929 375.557 382.875 393.285 391.074C398.965 393.701 403.841 394.12 408.558 398.728C418.004 407.958 418.238 422.97 408.866 432.353C400.653 440.574 391.739 439.398 381.066 439.385L253.438 439.37L134.681 439.302C128.503 439.316 122.136 439.725 115.981 439.159C93.5981 437.103 87.9956 406.027 108.302 394.917C111.359 393.245 114.799 392.761 117.749 390.759C132.317 380.872 141.696 358.093 133.296 341.801C130.734 336.832 127.399 332.324 124.842 327.301C94.5808 267.856 96.0699 201.103 128.313 142.19C126.307 140.409 124.049 138.909 121.947 137.242C107.005 125.392 97.9601 107.673 95.7928 88.8004C93.4386 68.3002 101.479 71.7836 117.801 71.7739C150.379 71.7545 173.462 71.048 195.98 100.907C210.787 88.4846 234.401 74.0599 254.198 71.3465ZM387.062 424.335C390.748 424.288 395.234 424.806 398.093 422.007C401.764 418.413 401.843 412.969 397.975 409.45C394.976 406.722 389.67 406.042 386.03 404.131C359.63 390.273 351.779 356.518 365.863 331.186C368.821 325.867 372.119 320.859 374.659 315.304C401.243 257.158 395.839 204.517 369.125 149.095C361.537 152.288 353.201 154.609 345.264 156.745C286.975 172.43 209.106 172.146 150.89 151.966C147.872 150.92 144.911 149.585 141.739 149.095C112.714 203.33 109.199 264.594 138.125 320.007C140.575 324.701 143.88 328.897 146.304 333.578C158.906 357.917 146.501 393.561 122.587 405.413C119.847 406.771 116.006 407.506 113.796 409.618C108.291 414.878 111.02 424.047 118.69 424.342C128.415 424.718 138.278 424.337 148.018 424.335L387.062 424.335ZM181.011 144.823C208.977 149.389 230.329 152.619 259.562 152.501C282.002 152.596 311.821 150.403 333.55 143.781C323.809 121.62 293.268 99.1371 271.786 90.7029C269.021 89.6174 258.813 85.7626 256.371 86.9332C229.139 88.8254 191.099 120.768 181.011 144.823ZM367.81 86.9332C350.553 90.2489 339.314 95.4034 328.052 110.043C336.005 121.573 341.392 125.594 348.787 140.15C351.666 139.105 354.537 137.998 357.438 137.016C383.092 127.597 396.862 114.133 399.798 86.9332C389.139 86.9391 378.468 86.8115 367.81 86.9332ZM133.297 86.9332L110.592 86.9332C114.765 118.895 135.347 131.848 163.687 140.15C164.634 140.091 165.552 140.101 166.499 140.15L166.697 139.836C169.433 135.441 171.101 130.608 174.027 126.193C177.482 120.979 181.98 116.532 185.419 111.359C170.031 93.6304 158.43 86.4503 133.297 86.9332Z"/>
	<path fill="#1EA145" transform="scale(2 2)" d="M256.371 233.042C268.185 209.536 289.401 193.733 316.453 192.78C321.393 192.606 326.371 192.796 331.316 192.765C347.238 192.665 351.851 190.022 351.682 207.654C351.412 235.887 351.579 254.074 329.26 276.4L329.064 276.6C309.523 296.349 288.617 295.833 263.75 295.843L263.773 313.207C263.786 319.043 264.962 329.48 256.249 329.59C246.986 329.708 248.246 319.479 248.267 313.327C248.286 307.499 248.352 301.67 248.295 295.843C239.76 296.135 230.617 296.267 222.164 295.307C189.343 291.578 164.455 264.414 161.065 231.913C160.484 226.337 160 204.223 160.97 198.737C161.808 194.003 165.781 193.078 170.001 192.751C202.665 192.657 228.741 192.58 250.112 222.54C252.479 225.859 254.275 229.552 256.371 233.042ZM175.499 207.751C175.486 215.058 175.054 222.676 175.707 229.941C178.8 264.346 207.058 282.087 239.204 280.991C233.45 275.015 195.32 238.962 194.216 233.042C194.34 230.626 195.035 228.562 196.877 226.899C203.054 221.322 208.458 228.77 212.477 232.822L225.941 246.559C233.335 254.114 241.312 261.204 248.295 269.144C251.707 241.127 228.932 211.48 200.692 208.273C194.461 207.566 188.166 207.777 181.905 207.751C179.754 207.86 177.651 207.855 175.499 207.751ZM263.75 269.144C268.078 263.953 303.73 225.76 309.295 225.154C313.227 224.726 317.754 227.67 317.829 231.907C317.895 235.656 314.285 238.761 311.871 241.223C299.776 253.731 285.507 269.542 272.735 280.991C306.654 283.369 334.18 260.591 336.55 226.369C336.977 220.201 336.764 213.934 336.752 207.751C330.695 207.534 324.048 207.287 318.014 207.751C285.898 207.849 261.905 238.139 263.75 269.144Z"/>
	<path fill="#1EA145" transform="scale(2 2)" d="M253.438 344.143C271.972 342.729 289.41 353.478 298.403 369.499C312.15 369.32 325.14 370.819 335.305 381.344C342.051 388.329 349.894 410.319 334.998 408.829C327.747 408.103 329.151 402.12 327.629 397.145C324.752 387.736 310.636 382.736 301.886 384.447C290.065 386.759 291.159 389.27 284.739 376.255C279.74 366.123 269.202 360.344 258.231 359.25C228.529 359.054 227.454 383.124 220.52 386.321C217.802 387.573 210.602 384.281 207.358 383.881C187.075 381.383 183.403 404.959 179.502 406.233C173.783 408.1 168.026 406.207 168.52 399.348C169.09 391.422 176.131 381.972 182.018 377.004C191.954 368.621 201.25 367.796 213.678 368.834C224.682 354.441 232.924 345.226 253.438 344.143Z"/>
</svg>
