<?xml version="1.0" encoding="utf-8" ?>
<svg xmlns="http://www.w3.org/2000/svg" xmlns:xlink="http://www.w3.org/1999/xlink" width="24" height="24" viewBox="0 0 24 24">
	<defs>
		<clipPath id="clipPath5939379096">
			<path d="M0 0L24 0L24 24L0 24L0 0Z" fill-rule="nonzero" transform="matrix(1 0 0 1 0 0)"/>
		</clipPath>
	</defs>
	<g clip-path="url(#clipPath5939379096)">
		<defs>
			<clipPath id="clipPath1844381537">
				<path d="M0 0L24 0L24 24L0 24L0 0Z" fill-rule="nonzero" transform="matrix(1 0 0 1 -0 -0)"/>
			</clipPath>
		</defs>
		<g clip-path="url(#clipPath1844381537)">
			<path d="M3.84084 0C2.96653 1.27017 2.44181 2.45259 2.30128 3.41587L3.42338 5.25136L4.76513 3.68245C4.80581 2.68809 4.50778 1.40072 3.84084 0ZM21.3794 0.137672C20.0453 0.907828 19.0643 1.749 18.5229 2.55759L18.7456 4.69922L20.6324 3.85837C21.096 2.9782 21.3795 1.68853 21.3794 0.137672ZM17.0786 1.41642C16.6027 2.40248 16.2911 3.3308 16.1338 4.14989L16.9951 6.85392L17.9223 5.24845L17.6176 2.33189L17.619 2.33189C17.4586 2.03227 17.2791 1.72692 17.0786 1.41642ZM0.508312 3.00441C0.502453 4.09959 0.620484 5.07169 0.830578 5.8785L2.77003 7.94822L2.91652 6.10106L1.38722 3.59916L1.38862 3.59766C1.11534 3.3967 0.822375 3.19828 0.508312 3.00441ZM6.73537 3.49809C6.34092 3.66234 5.97178 3.8362 5.62941 4.01813L3.78956 6.17297L3.64453 8.01862L6.00881 6.18609C6.32344 5.44059 6.57553 4.53314 6.73537 3.49809ZM15.0426 4.51181C13.9164 7.23478 14.2851 9.099 15.4116 9.59775L16.4033 7.88095L15.4849 5.00105C15.3455 4.83886 15.1986 4.67559 15.0426 4.51181ZM21.8877 4.52203C21.6744 4.52072 21.4673 4.52597 21.2652 4.53516L18.681 5.6865L17.7539 7.29338L20.6762 6.6533C21.2807 6.11564 21.8992 5.4052 22.4882 4.53952C22.2839 4.52939 22.0832 4.5232 21.8877 4.52203ZM11.2896 4.93078C10.2002 6.02006 9.46931 7.08717 9.15534 8.00836L9.92578 10.0196L11.5298 8.71884C11.7499 7.74834 11.6909 6.42872 11.2896 4.93078ZM0 6.67369C0.15375 9.61603 1.28822 11.1413 2.51953 11.1078L2.67628 9.12872L0.610828 6.92559C0.415125 6.83916 0.211688 6.75464 0 6.67369ZM6.71344 7.20689C6.41077 7.27036 6.12141 7.34264 5.84625 7.42078L3.55078 9.19913L3.39553 11.1562C4.63734 11.5082 6.07491 10.1921 6.71344 7.20689ZM7.46625 7.28016C7.26188 8.35523 7.20141 9.3315 7.26122 10.163L8.79347 12.5536L9.27253 10.7635L8.2222 8.0243L8.22361 8.0243C7.99149 7.7768 7.73995 7.5278 7.46625 7.28016ZM20.001 7.69913L17.1621 8.31872L16.1807 10.0179C17.1502 10.8708 19.0138 10.3008 20.8741 7.87927C20.5735 7.80652 20.2825 7.74694 20.001 7.69913ZM13.5 8.89584C13.0823 8.98584 12.6889 9.09084 12.3194 9.20789L10.1176 10.9905L9.63858 12.7807L12.2959 11.4081C12.7409 10.7319 13.1548 9.88509 13.5 8.89584ZM20.7715 10.0707C19.5598 11.0234 18.7068 11.9954 18.2857 12.873L18.8116 14.9604L20.5591 13.8602C20.8932 12.9232 20.9921 11.6061 20.7715 10.0707ZM14.9898 10.4736C13.3757 14.1098 12.2057 17.9295 12.0381 22.3343L12.9156 22.3343C13.0824 18.0785 14.2081 14.3924 15.7896 10.8295L14.9898 10.4736ZM6.30037 10.7973C5.91726 13.7198 6.75572 15.4245 7.9732 15.6137L8.48742 13.6977L6.85552 11.1548C6.6788 11.0343 6.49397 10.9155 6.30037 10.7973ZM16.6949 11.9472C16.3643 12.9899 16.1879 13.9521 16.1485 14.7847L17.3863 17.3438L18.0747 15.6225L17.3585 12.7778L17.3613 12.7778C17.1597 12.5036 16.9379 12.2265 16.6949 11.9472ZM2.51662 12.019C2.1105 15.5152 2.13553 18.9488 3.08794 22.3344L3.99919 22.3344C3.02058 19.017 2.979 15.6304 3.38681 12.1201L2.51662 12.019ZM12.8043 12.5391C12.4943 12.5466 12.1971 12.5644 11.9122 12.5918L9.33253 13.9262L8.82422 15.8203C9.98156 16.3936 11.6338 15.36 12.8043 12.5391ZM22.4942 14.2705C22.0689 14.31 21.6662 14.3667 21.2857 14.439L18.8878 15.9491L18.1993 17.6674L21.0001 16.6215C21.5223 16.0031 22.0339 15.2117 22.4942 14.2705ZM15.1203 15.3017C14.3924 18.1582 15.022 19.9513 16.2086 20.2836L16.9455 18.4424L15.6285 15.7222C15.4678 15.5816 15.2979 15.4417 15.1203 15.3017ZM7.82081 16.5015C7.22672 18.4343 6.77738 20.3709 6.5625 22.3344L7.44436 22.3344C7.65563 20.4725 8.08608 18.6205 8.65866 16.7577L7.82081 16.5015ZM20.4771 17.751L17.7583 18.7676L17.0288 20.5898C18.1095 21.2976 19.8728 20.4677 21.3706 17.8051C21.0615 17.7757 20.7636 17.7581 20.4771 17.751ZM15.9419 21.2035C15.8541 21.5651 15.7926 21.9421 15.7705 22.3344L16.6465 22.3344C16.6676 22.021 16.7191 21.7154 16.793 21.4116L15.9419 21.2035Z" fill-rule="nonzero" transform="matrix(1 0 0 1 0.769031 0.78225)" fill="rgb(46, 125, 50)"/>
		</g>
	</g>
</svg>
